<?xml version="1.0" encoding="utf-8"?>
<!-- Generator: Adobe Illustrator 19.2.0, SVG Export Plug-In . SVG Version: 6.00 Build 0)  -->
<svg version="1.1" id="Layer_1" xmlns="http://www.w3.org/2000/svg" xmlns:xlink="http://www.w3.org/1999/xlink" x="0px" y="0px"
	 viewBox="0 0 46.5 68.4" style="enable-background:new 0 0 46.5 68.4;" xml:space="preserve">
<style type="text/css">
	.st0{fill:#4D4F54;}
</style>
<g>
	<path class="st0" d="M22.1,44.5L22.1,44.5C22.1,44.4,22,44.4,22.1,44.5C22,44.4,22,44.4,22.1,44.5C22.1,44.4,22.1,44.4,22.1,44.5
		C22.1,44.4,22.1,44.4,22.1,44.5C22.1,44.4,22.1,44.4,22.1,44.5L22.1,44.5L22.1,44.5z"/>
	<path class="st0" d="M21.8,43.1C21.8,43.1,21.8,43,21.8,43.1C21.8,43,21.9,43,21.8,43.1C21.9,43,21.9,43.1,21.8,43.1
		C21.9,43.1,21.8,43.1,21.8,43.1z"/>
</g>
<g>
	<path class="st0" d="M22.5,45.6L22.5,45.6L22.5,45.6C22.4,45.6,22.4,45.5,22.5,45.6C22.5,45.5,22.5,45.5,22.5,45.6
		C22.5,45.5,22.5,45.5,22.5,45.6L22.5,45.6L22.5,45.6L22.5,45.6z"/>
	<path class="st0" d="M13.8,37.4L13.8,37.4L13.8,37.4C13.8,37.3,13.8,37.3,13.8,37.4C13.8,37.3,13.8,37.3,13.8,37.4
		C13.8,37.3,13.8,37.3,13.8,37.4L13.8,37.4L13.8,37.4L13.8,37.4z"/>
	<path class="st0" d="M32.7,37.4L32.7,37.4L32.7,37.4C32.7,37.3,32.7,37.3,32.7,37.4C32.7,37.3,32.7,37.3,32.7,37.4
		C32.7,37.3,32.7,37.3,32.7,37.4L32.7,37.4L32.7,37.4L32.7,37.4z"/>
	<path class="st0" d="M15.1,25.1C15.1,25.1,15.1,25,15.1,25.1C15.1,25,15.1,25,15.1,25.1C15.1,25,15.1,25,15.1,25.1
		C15.1,25,15.1,25,15.1,25.1C15.1,25,15.1,25,15.1,25.1C15.1,25,15.1,25,15.1,25.1C15.2,25,15.2,25,15.1,25.1L15.1,25.1z"/>
	<path class="st0" d="M31.4,25L31.4,25L31.4,25L31.4,25L31.4,25L31.4,25L31.4,25L31.4,25C31.4,25.1,31.4,25.1,31.4,25z"/>
</g>
<g>
	<path class="st0" d="M13.2,39.1L13.2,39.1L13.2,39.1C13.2,39.1,13.2,39,13.2,39.1C13.2,39,13.2,39,13.2,39.1L13.2,39.1L13.2,39.1
		L13.2,39.1L13.2,39.1z"/>
	<path class="st0" d="M33.3,39.1L33.3,39.1L33.3,39.1C33.3,39.1,33.3,39,33.3,39.1C33.3,39,33.3,39,33.3,39.1
		C33.3,39,33.3,39.1,33.3,39.1L33.3,39.1L33.3,39.1L33.3,39.1z"/>
	<path class="st0" d="M13.4,38.6C13.4,38.5,13.4,38.5,13.4,38.6C13.4,38.5,13.4,38.5,13.4,38.6C13.4,38.5,13.4,38.5,13.4,38.6
		C13.4,38.5,13.4,38.5,13.4,38.6C13.4,38.5,13.4,38.5,13.4,38.6C13.4,38.5,13.4,38.5,13.4,38.6C13.4,38.5,13.4,38.6,13.4,38.6
		L13.4,38.6z"/>
	<path class="st0" d="M33.1,38.6C33.1,38.6,33.1,38.5,33.1,38.6C33.1,38.5,33.1,38.5,33.1,38.6C33.1,38.5,33.1,38.5,33.1,38.6
		C33.1,38.5,33.1,38.5,33.1,38.6C33.1,38.5,33.1,38.5,33.1,38.6C33.1,38.5,33.1,38.5,33.1,38.6C33.1,38.5,33.1,38.6,33.1,38.6
		L33.1,38.6z"/>
</g>
<g>
	<path class="st0" d="M23.3,47.8L23.3,47.8C23.3,47.7,23.3,47.7,23.3,47.8C23.3,47.7,23.3,47.7,23.3,47.8
		C23.3,47.7,23.3,47.7,23.3,47.8C23.3,47.7,23.3,47.7,23.3,47.8C23.3,47.7,23.3,47.8,23.3,47.8L23.3,47.8L23.3,47.8z"/>
	<path class="st0" d="M23.2,47.7C23.2,47.7,23.2,47.6,23.2,47.7C23.2,47.6,23.2,47.6,23.2,47.7C23.2,47.6,23.2,47.6,23.2,47.7
		C23.2,47.6,23.2,47.6,23.2,47.7C23.2,47.6,23.2,47.6,23.2,47.7C23.2,47.6,23.2,47.6,23.2,47.7C23.2,47.6,23.2,47.7,23.2,47.7
		L23.2,47.7z"/>
	<path class="st0" d="M23.4,47.5L23.4,47.5L23.4,47.5C23.4,47.5,23.4,47.4,23.4,47.5C23.4,47.4,23.4,47.4,23.4,47.5L23.4,47.5
		L23.4,47.5L23.4,47.5L23.4,47.5z"/>
	<path class="st0" d="M23.1,47.3L23.1,47.3L23.1,47.3C23,47.3,23.1,47.3,23.1,47.3C23.1,47.2,23.1,47.2,23.1,47.3L23.1,47.3
		L23.1,47.3L23.1,47.3C23.1,47.4,23.1,47.4,23.1,47.3z"/>
	<path class="st0" d="M23.5,47.2L23.5,47.2L23.5,47.2C23.5,47.1,23.5,47.1,23.5,47.2C23.5,47.1,23.5,47.1,23.5,47.2
		C23.5,47.1,23.5,47.2,23.5,47.2L23.5,47.2L23.5,47.2L23.5,47.2z"/>
	<path class="st0" d="M23,47.1L23,47.1C23,47.1,23,47,23,47.1C23,47,23,47,23,47.1C23,47,23,47,23,47.1L23,47.1L23,47.1
		C23,47,23,47,23,47.1C23,47,23,47,23,47.1C23,47,23,47,23,47.1L23,47.1L23,47.1z"/>
	<path class="st0" d="M23.6,46.9L23.6,46.9L23.6,46.9L23.6,46.9L23.6,46.9L23.6,46.9L23.6,46.9L23.6,46.9C23.6,47,23.6,47,23.6,46.9
		z"/>
	<path class="st0" d="M22.9,46.8L22.9,46.8C22.9,46.7,22.9,46.7,22.9,46.8C22.8,46.7,22.8,46.7,22.9,46.8
		C22.9,46.7,22.9,46.7,22.9,46.8C22.9,46.7,22.9,46.7,22.9,46.8C22.9,46.7,22.9,46.7,22.9,46.8C22.9,46.7,22.9,46.8,22.9,46.8
		L22.9,46.8z"/>
	<path class="st0" d="M23.7,46.6L23.7,46.6L23.7,46.6L23.7,46.6C23.7,46.5,23.7,46.5,23.7,46.6L23.7,46.6L23.7,46.6L23.7,46.6
		L23.7,46.6z"/>
	<path class="st0" d="M22.8,46.5C22.8,46.5,22.8,46.4,22.8,46.5C22.8,46.4,22.7,46.4,22.8,46.5C22.7,46.4,22.7,46.4,22.8,46.5
		C22.8,46.4,22.8,46.4,22.8,46.5C22.8,46.4,22.8,46.4,22.8,46.5C22.8,46.4,22.8,46.4,22.8,46.5C22.8,46.4,22.8,46.4,22.8,46.5
		L22.8,46.5z"/>
	<path class="st0" d="M23.8,46.4L23.8,46.4C23.8,46.3,23.8,46.3,23.8,46.4C23.8,46.3,23.8,46.3,23.8,46.4
		C23.8,46.3,23.8,46.3,23.8,46.4C23.8,46.3,23.8,46.3,23.8,46.4C23.8,46.3,23.8,46.3,23.8,46.4L23.8,46.4L23.8,46.4z"/>
	<path class="st0" d="M22.7,46.2L22.7,46.2C22.7,46.2,22.7,46.1,22.7,46.2C22.6,46.1,22.6,46.1,22.7,46.2
		C22.7,46.1,22.7,46.1,22.7,46.2L22.7,46.2L22.7,46.2C22.7,46.1,22.7,46.1,22.7,46.2C22.7,46.1,22.7,46.1,22.7,46.2
		C22.7,46.1,22.7,46.2,22.7,46.2L22.7,46.2L22.7,46.2z"/>
	<path class="st0" d="M23.9,46.1C23.9,46.1,23.9,46,23.9,46.1C23.9,46,23.9,46,23.9,46.1C23.9,46,23.9,46,23.9,46.1
		C23.9,46,23.9,46,23.9,46.1C23.9,46,23.9,46,23.9,46.1C23.9,46,23.9,46,23.9,46.1C23.9,46,23.9,46.1,23.9,46.1L23.9,46.1z"/>
	<path class="st0" d="M22.6,45.9L22.6,45.9C22.6,45.9,22.5,45.8,22.6,45.9C22.5,45.8,22.5,45.8,22.6,45.9
		C22.6,45.8,22.6,45.8,22.6,45.9C22.6,45.8,22.6,45.8,22.6,45.9C22.6,45.8,22.6,45.8,22.6,45.9L22.6,45.9L22.6,45.9z"/>
	<path class="st0" d="M24,45.8L24,45.8L24,45.8C24,45.7,24,45.7,24,45.8C24,45.7,24,45.7,24,45.8C24,45.7,24,45.7,24,45.8L24,45.8
		L24,45.8L24,45.8z"/>
	<path class="st0" d="M24.1,45.5L24.1,45.5C24.1,45.5,24.1,45.4,24.1,45.5C24.1,45.4,24.1,45.4,24.1,45.5
		C24.1,45.4,24.1,45.4,24.1,45.5C24.1,45.4,24.1,45.4,24.1,45.5C24.1,45.4,24.1,45.5,24.1,45.5L24.1,45.5L24.1,45.5z"/>
	<path class="st0" d="M22.4,45.5C22.4,45.5,22.4,45.4,22.4,45.5C22.4,45.4,22.4,45.4,22.4,45.5C22.4,45.4,22.4,45.4,22.4,45.5
		C22.4,45.4,22.4,45.4,22.4,45.5C22.4,45.4,22.4,45.4,22.4,45.5C22.4,45.4,22.4,45.4,22.4,45.5C22.4,45.4,22.4,45.5,22.4,45.5
		L22.4,45.5z"/>
	<path class="st0" d="M24.2,45.2L24.2,45.2L24.2,45.2L24.2,45.2C24.2,45.1,24.2,45.1,24.2,45.2L24.2,45.2L24.2,45.2L24.2,45.2
		L24.2,45.2z"/>
	<path class="st0" d="M22.3,45.1L22.3,45.1L22.3,45.1L22.3,45.1C22.3,45,22.3,45,22.3,45.1L22.3,45.1L22.3,45.1L22.3,45.1
		C22.3,45.1,22.3,45.2,22.3,45.1z"/>
	<path class="st0" d="M24.3,44.9L24.3,44.9L24.3,44.9C24.3,44.8,24.3,44.8,24.3,44.9C24.3,44.8,24.3,44.8,24.3,44.9
		C24.4,44.8,24.3,44.9,24.3,44.9L24.3,44.9L24.3,44.9L24.3,44.9z"/>
	<path class="st0" d="M22.2,44.9L22.2,44.9C22.2,44.9,22.2,44.8,22.2,44.9C22.2,44.8,22.2,44.8,22.2,44.9
		C22.2,44.8,22.2,44.8,22.2,44.9C22.2,44.8,22.2,44.8,22.2,44.9C22.2,44.8,22.2,44.8,22.2,44.9L22.2,44.9L22.2,44.9z"/>
	<path class="st0" d="M24.4,44.7C24.4,44.6,24.4,44.6,24.4,44.7C24.4,44.6,24.4,44.6,24.4,44.7C24.4,44.6,24.4,44.6,24.4,44.7
		C24.4,44.6,24.4,44.6,24.4,44.7C24.4,44.6,24.4,44.6,24.4,44.7C24.4,44.6,24.4,44.6,24.4,44.7C24.4,44.6,24.4,44.7,24.4,44.7
		L24.4,44.7z"/>
	<path class="st0" d="M22.1,44.6L22.1,44.6C22.1,44.5,22.1,44.5,22.1,44.6C22.1,44.5,22.1,44.5,22.1,44.6
		C22.1,44.5,22.1,44.5,22.1,44.6C22.1,44.5,22.1,44.5,22.1,44.6C22.1,44.5,22.1,44.5,22.1,44.6C22.1,44.5,22.1,44.6,22.1,44.6
		L22.1,44.6z"/>
	<path class="st0" d="M24.5,44.3L24.5,44.3L24.5,44.3L24.5,44.3C24.5,44.2,24.5,44.3,24.5,44.3C24.6,44.3,24.6,44.3,24.5,44.3
		L24.5,44.3L24.5,44.3C24.5,44.4,24.5,44.3,24.5,44.3z"/>
	<path class="st0" d="M22,44.3L22,44.3L22,44.3C22,44.2,22,44.2,22,44.3C22,44.2,22,44.2,22,44.3L22,44.3L22,44.3
		C22,44.2,22,44.2,22,44.3C22,44.2,22,44.2,22,44.3C22,44.2,22,44.3,22,44.3L22,44.3L22,44.3z"/>
	<path class="st0" d="M24.6,44.1L24.6,44.1C24.6,44,24.6,44,24.6,44.1C24.6,44,24.6,44,24.6,44.1C24.6,44,24.6,44,24.6,44.1
		C24.6,44,24.6,44,24.6,44.1C24.6,44,24.6,44.1,24.6,44.1L24.6,44.1L24.6,44.1z"/>
	<path class="st0" d="M21.9,43.9L21.9,43.9L21.9,43.9C21.8,43.9,21.8,43.9,21.9,43.9C21.9,43.8,21.9,43.8,21.9,43.9L21.9,43.9
		L21.9,43.9L21.9,43.9L21.9,43.9z"/>
	<path class="st0" d="M24.7,43.8C24.7,43.8,24.7,43.7,24.7,43.8C24.7,43.7,24.7,43.7,24.7,43.8C24.7,43.7,24.7,43.7,24.7,43.8
		C24.7,43.7,24.7,43.7,24.7,43.8C24.8,43.7,24.8,43.7,24.7,43.8C24.7,43.7,24.7,43.7,24.7,43.8L24.7,43.8L24.7,43.8z"/>
	<path class="st0" d="M21.8,43.7L21.8,43.7C21.8,43.7,21.8,43.6,21.8,43.7C21.8,43.6,21.8,43.6,21.8,43.7
		C21.8,43.6,21.8,43.6,21.8,43.7C21.8,43.6,21.8,43.6,21.8,43.7C21.8,43.6,21.8,43.6,21.8,43.7L21.8,43.7L21.8,43.7z"/>
	<path class="st0" d="M21.7,43.4L21.7,43.4L21.7,43.4L21.7,43.4C21.7,43.3,21.7,43.3,21.7,43.4L21.7,43.4L21.7,43.4L21.7,43.4
		C21.8,43.3,21.7,43.4,21.7,43.4C21.8,43.4,21.8,43.4,21.7,43.4L21.7,43.4C21.7,43.4,21.7,43.5,21.7,43.4z"/>
	<path class="st0" d="M24.8,43.4L24.8,43.4C24.8,43.3,24.8,43.3,24.8,43.4C24.7,43.3,24.7,43.3,24.8,43.4
		C24.8,43.3,24.8,43.3,24.8,43.4L24.8,43.4L24.8,43.4C24.8,43.2,24.8,43.3,24.8,43.4C24.8,43.3,24.8,43.3,24.8,43.4
		C24.8,43.3,24.8,43.3,24.8,43.4C24.8,43.3,24.8,43.4,24.8,43.4L24.8,43.4z"/>
	<path class="st0" d="M37.9,43.4L37.9,43.4C37.9,43.3,37.9,43.3,37.9,43.4C37.9,43.3,37.9,43.3,37.9,43.4
		C37.9,43.3,37.9,43.3,37.9,43.4C37.9,43.3,37.9,43.3,37.9,43.4C37.9,43.3,37.9,43.3,37.9,43.4C37.9,43.3,37.9,43.4,37.9,43.4
		L37.9,43.4z"/>
	<path class="st0" d="M11.7,43.2L11.7,43.2C11.7,43.2,11.7,43.1,11.7,43.2C11.8,43.1,11.8,43.1,11.7,43.2
		C11.7,43.1,11.7,43.1,11.7,43.2L11.7,43.2L11.7,43.2L11.7,43.2C11.8,43.1,11.8,43.1,11.7,43.2C11.8,43.1,11.8,43.1,11.7,43.2
		C11.8,43.2,11.8,43.2,11.7,43.2C11.8,43.2,11.7,43.2,11.7,43.2z"/>
	<path class="st0" d="M34.8,43.2C34.7,43.2,34.7,43.2,34.8,43.2C34.7,43.2,34.7,43.2,34.8,43.2C34.7,43.1,34.7,43.1,34.8,43.2
		C34.8,43.1,34.8,43.1,34.8,43.2L34.8,43.2L34.8,43.2C34.7,43.1,34.7,43.1,34.8,43.2C34.8,43.1,34.8,43.1,34.8,43.2
		C34.8,43.1,34.8,43.2,34.8,43.2L34.8,43.2L34.8,43.2z"/>
	<path class="st0" d="M37.8,43.1L37.8,43.1L37.8,43.1C37.8,43,37.8,43,37.8,43.1C37.8,43,37.8,43,37.8,43.1
		C37.8,43,37.8,43,37.8,43.1C37.8,43,37.8,43.1,37.8,43.1L37.8,43.1L37.8,43.1z"/>
	<path class="st0" d="M8.7,42.9L8.7,42.9L8.7,42.9L8.7,42.9C8.8,42.8,8.8,42.8,8.7,42.9C8.8,42.9,8.8,42.9,8.7,42.9
		C8.8,42.9,8.7,42.9,8.7,42.9C8.8,42.9,8.8,42.9,8.7,42.9L8.7,42.9z"/>
	<path class="st0" d="M21.9,42.9C21.9,42.9,21.9,42.8,21.9,42.9C21.9,42.8,21.9,42.8,21.9,42.9C21.9,42.8,21.9,42.8,21.9,42.9
		C21.9,42.8,21.9,42.8,21.9,42.9L21.9,42.9L21.9,42.9L21.9,42.9C22,42.8,22,42.8,21.9,42.9C22,42.8,22,42.8,21.9,42.9
		C21.9,42.8,21.9,42.8,21.9,42.9L21.9,42.9z"/>
	<path class="st0" d="M37.7,42.9C37.7,42.8,37.7,42.8,37.7,42.9C37.7,42.8,37.7,42.8,37.7,42.9C37.7,42.8,37.7,42.8,37.7,42.9
		C37.7,42.8,37.7,42.7,37.7,42.9C37.7,42.8,37.7,42.8,37.7,42.9C37.7,42.8,37.7,42.8,37.7,42.9C37.7,42.8,37.7,42.8,37.7,42.9
		L37.7,42.9z"/>
	<path class="st0" d="M24.6,42.8L24.6,42.8C24.6,42.8,24.6,42.7,24.6,42.8C24.5,42.7,24.5,42.7,24.6,42.8
		C24.6,42.7,24.6,42.7,24.6,42.8L24.6,42.8L24.6,42.8C24.6,42.7,24.6,42.7,24.6,42.8C24.6,42.7,24.6,42.7,24.6,42.8
		C24.6,42.7,24.6,42.7,24.6,42.8L24.6,42.8L24.6,42.8z"/>
	<path class="st0" d="M8.8,42.7L8.8,42.7C8.8,42.6,8.8,42.6,8.8,42.7C8.8,42.6,8.8,42.6,8.8,42.7C8.8,42.6,8.9,42.6,8.8,42.7
		C8.9,42.6,8.9,42.6,8.8,42.7C8.8,42.6,8.8,42.6,8.8,42.7C8.9,42.7,8.8,42.7,8.8,42.7L8.8,42.7z"/>
	<path class="st0" d="M11.9,42.6L11.9,42.6C11.9,42.6,12,42.6,11.9,42.6C12,42.6,12,42.5,11.9,42.6C11.9,42.5,11.9,42.5,11.9,42.6
		L11.9,42.6L11.9,42.6L11.9,42.6C12,42.5,12,42.5,11.9,42.6C12,42.5,12,42.6,11.9,42.6C12,42.6,12,42.6,11.9,42.6
		C12,42.6,12,42.6,11.9,42.6z"/>
	<path class="st0" d="M34.5,42.6L34.5,42.6L34.5,42.6C34.5,42.6,34.5,42.5,34.5,42.6C34.5,42.5,34.5,42.5,34.5,42.6L34.5,42.6
		L34.5,42.6C34.5,42.5,34.5,42.5,34.5,42.6C34.6,42.5,34.6,42.6,34.5,42.6C34.6,42.6,34.6,42.6,34.5,42.6
		C34.6,42.6,34.6,42.6,34.5,42.6C34.6,42.6,34.5,42.6,34.5,42.6z"/>
	<path class="st0" d="M37.6,42.5L37.6,42.5L37.6,42.5L37.6,42.5C37.6,42.4,37.6,42.4,37.6,42.5C37.6,42.4,37.6,42.5,37.6,42.5
		L37.6,42.5L37.6,42.5L37.6,42.5z"/>
	<path class="st0" d="M22.1,42.3L22.1,42.3C22.1,42.2,22.1,42.2,22.1,42.3C22.1,42.2,22.1,42.2,22.1,42.3
		C22.1,42.2,22.1,42.2,22.1,42.3L22.1,42.3L22.1,42.3L22.1,42.3C22.1,42.2,22.2,42.2,22.1,42.3C22.2,42.2,22.2,42.2,22.1,42.3
		L22.1,42.3L22.1,42.3z"/>
	<path class="st0" d="M37.5,42.3L37.5,42.3C37.5,42.2,37.5,42.2,37.5,42.3C37.5,42.2,37.5,42.2,37.5,42.3
		C37.5,42.2,37.5,42.2,37.5,42.3C37.5,42.2,37.5,42.2,37.5,42.3C37.5,42.2,37.5,42.2,37.5,42.3L37.5,42.3L37.5,42.3z"/>
	<path class="st0" d="M12.1,42.3C12.1,42.2,12.1,42.2,12.1,42.3C12.1,42.2,12.1,42.2,12.1,42.3C12.1,42.2,12.1,42.2,12.1,42.3
		C12.1,42.2,12.1,42.2,12.1,42.3C12.1,42.2,12.1,42.2,12.1,42.3C12.1,42.2,12.1,42.2,12.1,42.3C12.1,42.2,12.1,42.3,12.1,42.3
		L12.1,42.3z"/>
	<path class="st0" d="M34.4,42.3C34.4,42.3,34.4,42.2,34.4,42.3C34.4,42.2,34.4,42.2,34.4,42.3C34.4,42.2,34.4,42.2,34.4,42.3
		C34.4,42.2,34.4,42.2,34.4,42.3C34.4,42.2,34.4,42.2,34.4,42.3C34.4,42.2,34.4,42.2,34.4,42.3C34.5,42.2,34.4,42.3,34.4,42.3
		L34.4,42.3z"/>
	<path class="st0" d="M24.4,42.2L24.4,42.2L24.4,42.2C24.3,42.1,24.3,42.1,24.4,42.2C24.4,42.1,24.4,42.1,24.4,42.2L24.4,42.2
		L24.4,42.2C24.4,42.1,24.4,42.1,24.4,42.2C24.4,42.1,24.4,42.1,24.4,42.2L24.4,42.2L24.4,42.2L24.4,42.2z"/>
	<path class="st0" d="M9,42.1L9,42.1L9,42.1C9,42,9,42,9,42.1C9,42,9.1,42,9,42.1C9.1,42,9.1,42,9,42.1L9,42.1
		C9.1,42.1,9.1,42.1,9,42.1L9,42.1z"/>
	<path class="st0" d="M12.1,42.1C12.1,42,12.1,42,12.1,42.1C12.2,42,12.2,42,12.1,42.1C12.2,42,12.2,42,12.1,42.1
		C12.1,42,12.1,42,12.1,42.1L12.1,42.1L12.1,42.1L12.1,42.1C12.2,42,12.2,42,12.1,42.1C12.2,42,12.2,42,12.1,42.1
		C12.2,42,12.2,42,12.1,42.1C12.2,42.1,12.2,42.1,12.1,42.1z"/>
	<path class="st0" d="M34.3,42.1C34.3,42.1,34.3,42,34.3,42.1C34.3,42,34.3,42,34.3,42.1C34.3,42,34.3,42,34.3,42.1
		C34.3,42,34.3,42,34.3,42.1L34.3,42.1L34.3,42.1C34.3,41.9,34.3,42,34.3,42.1C34.3,42,34.4,42,34.3,42.1C34.4,42,34.4,42,34.3,42.1
		C34.4,42,34.4,42,34.3,42.1C34.4,42.1,34.3,42.1,34.3,42.1z"/>
	<path class="st0" d="M37.4,42L37.4,42L37.4,42C37.4,41.9,37.4,41.9,37.4,42C37.4,41.9,37.4,41.9,37.4,42
		C37.4,41.9,37.4,41.9,37.4,42L37.4,42L37.4,42L37.4,42z"/>
	<path class="st0" d="M9.1,41.8L9.1,41.8L9.1,41.8L9.1,41.8C9.1,41.8,9.2,41.8,9.1,41.8C9.2,41.8,9.2,41.8,9.1,41.8L9.1,41.8
		L9.1,41.8C9.1,41.9,9.1,41.9,9.1,41.8z"/>
	<path class="st0" d="M22.3,41.7L22.3,41.7L22.3,41.7C22.3,41.6,22.3,41.6,22.3,41.7C22.3,41.6,22.3,41.6,22.3,41.7L22.3,41.7
		L22.3,41.7L22.3,41.7C22.3,41.6,22.4,41.6,22.3,41.7C22.4,41.6,22.4,41.7,22.3,41.7L22.3,41.7L22.3,41.7z"/>
	<path class="st0" d="M37.3,41.7L37.3,41.7L37.3,41.7C37.3,41.6,37.3,41.6,37.3,41.7C37.3,41.6,37.3,41.6,37.3,41.7
		C37.3,41.6,37.3,41.6,37.3,41.7C37.3,41.6,37.3,41.7,37.3,41.7L37.3,41.7L37.3,41.7z"/>
	<path class="st0" d="M12.3,41.7L12.3,41.7C12.3,41.6,12.3,41.6,12.3,41.7C12.3,41.6,12.3,41.6,12.3,41.7
		C12.3,41.6,12.3,41.6,12.3,41.7C12.3,41.6,12.3,41.6,12.3,41.7C12.3,41.6,12.3,41.6,12.3,41.7L12.3,41.7L12.3,41.7z"/>
	<path class="st0" d="M34.2,41.7L34.2,41.7C34.2,41.7,34.2,41.6,34.2,41.7C34.2,41.6,34.2,41.6,34.2,41.7
		C34.2,41.6,34.2,41.6,34.2,41.7C34.2,41.6,34.2,41.6,34.2,41.7C34.2,41.6,34.2,41.6,34.2,41.7L34.2,41.7L34.2,41.7z"/>
	<path class="st0" d="M24.2,41.6L24.2,41.6L24.2,41.6C24.1,41.6,24.1,41.6,24.2,41.6C24.2,41.5,24.2,41.5,24.2,41.6L24.2,41.6
		L24.2,41.6C24.2,41.5,24.2,41.5,24.2,41.6L24.2,41.6L24.2,41.6L24.2,41.6C24.2,41.7,24.2,41.7,24.2,41.6z"/>
	<path class="st0" d="M37.2,41.4L37.2,41.4L37.2,41.4L37.2,41.4C37.2,41.3,37.2,41.3,37.2,41.4L37.2,41.4L37.2,41.4L37.2,41.4
		C37.2,41.4,37.2,41.5,37.2,41.4z"/>
	<path class="st0" d="M9.3,41.3C9.3,41.3,9.3,41.2,9.3,41.3C9.3,41.2,9.3,41.2,9.3,41.3C9.3,41.2,9.3,41.2,9.3,41.3
		C9.3,41.2,9.4,41.2,9.3,41.3C9.4,41.2,9.4,41.2,9.3,41.3C9.3,41.2,9.3,41.2,9.3,41.3C9.4,41.3,9.3,41.3,9.3,41.3L9.3,41.3z"/>
	<path class="st0" d="M37.1,41.2L37.1,41.2C37.1,41.2,37.1,41.1,37.1,41.2C37.1,41.1,37.1,41.1,37.1,41.2
		C37.1,41.1,37.1,41.1,37.1,41.2C37.1,41.1,37.1,41.1,37.1,41.2C37.1,41.1,37.1,41.1,37.1,41.2C37.2,41.2,37.1,41.2,37.1,41.2
		L37.1,41.2z"/>
	<path class="st0" d="M22.5,41.1L22.5,41.1L22.5,41.1L22.5,41.1C22.5,41,22.5,41,22.5,41.1L22.5,41.1L22.5,41.1L22.5,41.1
		C22.5,41,22.6,41.1,22.5,41.1C22.6,41.1,22.6,41.1,22.5,41.1L22.5,41.1C22.6,41.1,22.5,41.2,22.5,41.1z"/>
	<path class="st0" d="M12.5,41.1L12.5,41.1L12.5,41.1C12.5,41,12.5,41,12.5,41.1C12.5,41,12.5,41,12.5,41.1
		C12.5,41,12.5,41,12.5,41.1L12.5,41.1L12.5,41.1L12.5,41.1z"/>
	<path class="st0" d="M34,41.1L34,41.1L34,41.1C34,41,34,41,34,41.1C34,41,34,41,34,41.1C34,41,34,41,34,41.1C34,41,34,41.1,34,41.1
		L34,41.1L34,41.1z"/>
	<path class="st0" d="M9.4,41L9.4,41L9.4,41C9.4,40.9,9.4,40.9,9.4,41C9.4,40.9,9.4,40.9,9.4,41C9.5,40.9,9.5,41,9.4,41L9.4,41
		L9.4,41L9.4,41z"/>
	<path class="st0" d="M23.9,41L23.9,41L23.9,41C23.9,40.9,23.9,40.9,23.9,41C23.9,40.9,24,40.9,23.9,41C24,40.9,24,40.9,23.9,41
		C24,41,24,41,23.9,41C24,41,24,41,23.9,41C24,41,23.9,41,23.9,41z"/>
	<path class="st0" d="M37,40.9L37,40.9C37,40.8,37,40.8,37,40.9C37,40.8,37,40.8,37,40.9C37,40.8,37,40.8,37,40.9
		C37,40.8,37,40.8,37,40.9C37,40.8,37,40.8,37,40.9C37,40.8,37,40.9,37,40.9L37,40.9z"/>
	<path class="st0" d="M36.9,40.6L36.9,40.6L36.9,40.6C36.9,40.5,36.9,40.5,36.9,40.6C36.9,40.5,36.9,40.5,36.9,40.6
		C36.9,40.5,36.9,40.5,36.9,40.6L36.9,40.6L36.9,40.6L36.9,40.6z"/>
	<path class="st0" d="M12.7,40.5L12.7,40.5L12.7,40.5L12.7,40.5C12.7,40.4,12.7,40.4,12.7,40.5L12.7,40.5L12.7,40.5L12.7,40.5
		L12.7,40.5z"/>
	<path class="st0" d="M33.8,40.5L33.8,40.5L33.8,40.5L33.8,40.5C33.8,40.4,33.8,40.4,33.8,40.5C33.8,40.4,33.8,40.5,33.8,40.5
		L33.8,40.5L33.8,40.5L33.8,40.5z"/>
	<path class="st0" d="M22.7,40.5L22.7,40.5C22.8,40.5,22.8,40.5,22.7,40.5C22.8,40.4,22.8,40.4,22.7,40.5
		C22.8,40.4,22.8,40.4,22.7,40.5C22.8,40.4,22.8,40.5,22.7,40.5C22.8,40.5,22.8,40.5,22.7,40.5C22.8,40.5,22.8,40.5,22.7,40.5
		C22.8,40.5,22.7,40.5,22.7,40.5z"/>
	<path class="st0" d="M9.6,40.4L9.6,40.4L9.6,40.4L9.6,40.4C9.6,40.3,9.7,40.4,9.6,40.4C9.7,40.4,9.7,40.4,9.6,40.4L9.6,40.4
		L9.6,40.4C9.6,40.5,9.6,40.4,9.6,40.4z"/>
	<path class="st0" d="M23.7,40.4L23.7,40.4L23.7,40.4L23.7,40.4C23.7,40.3,23.7,40.3,23.7,40.4C23.7,40.4,23.8,40.4,23.7,40.4
		C23.8,40.4,23.8,40.4,23.7,40.4C23.8,40.4,23.8,40.4,23.7,40.4C23.8,40.5,23.7,40.5,23.7,40.4z"/>
	<path class="st0" d="M36.8,40.4C36.8,40.3,36.8,40.3,36.8,40.4C36.8,40.3,36.8,40.3,36.8,40.4C36.8,40.3,36.8,40.3,36.8,40.4
		C36.8,40.3,36.8,40.3,36.8,40.4C36.8,40.3,36.8,40.3,36.8,40.4C36.8,40.3,36.8,40.3,36.8,40.4C36.9,40.3,36.9,40.3,36.8,40.4
		L36.8,40.4z"/>
	<path class="st0" d="M20.6,40.3L20.6,40.3C20.6,40.2,20.5,40.2,20.6,40.3C20.5,40.2,20.5,40.2,20.6,40.3
		C20.6,40.2,20.6,40.2,20.6,40.3C20.6,40.2,20.6,40.2,20.6,40.3C20.6,40.2,20.6,40.2,20.6,40.3L20.6,40.3L20.6,40.3z"/>
	<path class="st0" d="M25.9,40.3C25.9,40.3,25.9,40.2,25.9,40.3C26,40.2,26,40.2,25.9,40.3C26,40.2,26,40.2,25.9,40.3
		C26,40.2,26,40.2,25.9,40.3C26,40.2,26,40.2,25.9,40.3C26,40.2,26,40.2,25.9,40.3C26,40.3,26,40.3,25.9,40.3
		C26,40.3,25.9,40.3,25.9,40.3z"/>
	<path class="st0" d="M9.7,40.2L9.7,40.2C9.7,40.1,9.7,40.1,9.7,40.2C9.7,40.1,9.7,40.1,9.7,40.2C9.7,40.1,9.7,40.1,9.7,40.2
		C9.8,40.1,9.8,40.1,9.7,40.2C9.7,40.1,9.7,40.1,9.7,40.2L9.7,40.2L9.7,40.2z"/>
	<path class="st0" d="M36.7,40L36.7,40L36.7,40L36.7,40C36.7,39.9,36.7,39.9,36.7,40C36.7,39.9,36.7,40,36.7,40L36.7,40L36.7,40
		L36.7,40z"/>
	<path class="st0" d="M20.5,40L20.5,40L20.5,40C20.4,39.9,20.4,39.9,20.5,40C20.5,39.9,20.5,39.9,20.5,40
		C20.5,39.9,20.5,39.9,20.5,40L20.5,40L20.5,40L20.5,40z"/>
	<path class="st0" d="M26,40L26,40C26.1,40,26.1,40,26,40C26,39.9,26,39.9,26,40C26.1,39.9,26.1,39.9,26,40C26.1,39.9,26.1,40,26,40
		C26.1,40,26.1,40,26,40C26.1,40,26.1,40,26,40C26.1,40,26,40,26,40z"/>
	<path class="st0" d="M12.9,40C12.9,39.9,12.9,39.9,12.9,40C12.9,39.9,12.9,39.9,12.9,40C12.9,39.9,12.9,39.9,12.9,40
		C12.9,39.9,12.9,39.9,12.9,40C12.9,39.9,12.9,39.9,12.9,40C12.9,39.9,12.9,39.9,12.9,40C12.9,39.9,12.9,40,12.9,40L12.9,40z"/>
	<path class="st0" d="M33.6,40C33.6,40,33.6,39.9,33.6,40C33.6,39.9,33.6,39.9,33.6,40C33.6,39.9,33.6,39.9,33.6,40
		C33.6,39.9,33.6,39.9,33.6,40C33.6,39.9,33.6,39.9,33.6,40C33.6,39.9,33.6,39.9,33.6,40C33.6,39.9,33.6,40,33.6,40L33.6,40z"/>
	<path class="st0" d="M22.9,39.9L22.9,39.9C23,39.9,23,39.9,22.9,39.9C23,39.9,23,39.9,22.9,39.9C23,39.8,23,39.9,22.9,39.9
		C23,39.9,23,39.9,22.9,39.9C23,39.9,23,39.9,22.9,39.9C23,39.9,23,39.9,22.9,39.9C23,40,22.9,39.9,22.9,39.9z"/>
	<path class="st0" d="M36.6,39.8L36.6,39.8C36.6,39.7,36.6,39.7,36.6,39.8C36.6,39.7,36.6,39.7,36.6,39.8
		C36.6,39.7,36.6,39.7,36.6,39.8C36.6,39.7,36.6,39.7,36.6,39.8C36.6,39.7,36.6,39.7,36.6,39.8C36.7,39.8,36.7,39.8,36.6,39.8
		L36.6,39.8z"/>
	<path class="st0" d="M20.4,39.8C20.4,39.8,20.4,39.7,20.4,39.8C20.4,39.7,20.4,39.7,20.4,39.8C20.3,39.7,20.3,39.7,20.4,39.8
		C20.4,39.7,20.4,39.7,20.4,39.8C20.4,39.7,20.4,39.7,20.4,39.8C20.4,39.7,20.4,39.7,20.4,39.8C20.4,39.7,20.4,39.8,20.4,39.8
		L20.4,39.8z"/>
	<path class="st0" d="M26.1,39.8C26.1,39.7,26.1,39.7,26.1,39.8C26.1,39.7,26.1,39.7,26.1,39.8C26.1,39.7,26.1,39.7,26.1,39.8
		C26.2,39.7,26.2,39.7,26.1,39.8C26.2,39.7,26.2,39.7,26.1,39.8C26.2,39.7,26.2,39.7,26.1,39.8C26.2,39.7,26.2,39.8,26.1,39.8
		L26.1,39.8z"/>
	<path class="st0" d="M9.9,39.6L9.9,39.6L9.9,39.6C9.9,39.5,9.9,39.5,9.9,39.6C9.9,39.5,9.9,39.5,9.9,39.6C10,39.5,10,39.5,9.9,39.6
		L9.9,39.6L9.9,39.6L9.9,39.6z"/>
	<path class="st0" d="M23.4,39.6C23.4,39.6,23.4,39.5,23.4,39.6C23.4,39.5,23.4,39.5,23.4,39.6C23.4,39.5,23.4,39.5,23.4,39.6
		C23.4,39.5,23.4,39.5,23.4,39.6C23.4,39.5,23.4,39.5,23.4,39.6C23.4,39.5,23.4,39.5,23.4,39.6C23.5,39.5,23.5,39.5,23.4,39.6
		L23.4,39.6z"/>
	<path class="st0" d="M36.5,39.5L36.5,39.5L36.5,39.5C36.5,39.4,36.5,39.4,36.5,39.5C36.5,39.4,36.5,39.4,36.5,39.5
		C36.5,39.4,36.5,39.4,36.5,39.5L36.5,39.5C36.6,39.5,36.6,39.5,36.5,39.5L36.5,39.5z"/>
	<path class="st0" d="M20.3,39.5L20.3,39.5L20.3,39.5C20.3,39.4,20.3,39.4,20.3,39.5C20.3,39.4,20.3,39.4,20.3,39.5
		C20.3,39.4,20.3,39.4,20.3,39.5C20.3,39.4,20.3,39.5,20.3,39.5L20.3,39.5L20.3,39.5z"/>
	<path class="st0" d="M26.2,39.5L26.2,39.5C26.2,39.5,26.2,39.4,26.2,39.5C26.2,39.4,26.2,39.4,26.2,39.5
		C26.3,39.4,26.3,39.4,26.2,39.5C26.3,39.4,26.3,39.4,26.2,39.5C26.3,39.5,26.2,39.5,26.2,39.5C26.3,39.5,26.3,39.5,26.2,39.5
		L26.2,39.5z"/>
	<path class="st0" d="M13.1,39.4L13.1,39.4C13.1,39.3,13.1,39.3,13.1,39.4C13.1,39.3,13.1,39.3,13.1,39.4
		C13.1,39.3,13.1,39.3,13.1,39.4C13.1,39.3,13.1,39.3,13.1,39.4C13.1,39.3,13.1,39.4,13.1,39.4L13.1,39.4L13.1,39.4z"/>
	<path class="st0" d="M33.4,39.4L33.4,39.4C33.4,39.4,33.4,39.3,33.4,39.4C33.4,39.3,33.4,39.3,33.4,39.4
		C33.4,39.3,33.4,39.3,33.4,39.4C33.4,39.3,33.4,39.3,33.4,39.4C33.4,39.3,33.4,39.3,33.4,39.4L33.4,39.4L33.4,39.4z"/>
	<path class="st0" d="M10,39.3L10,39.3L10,39.3L10,39.3L10,39.3C10.1,39.3,10,39.3,10,39.3L10,39.3L10,39.3C10,39.4,10,39.4,10,39.3
		z"/>
	<path class="st0" d="M20.2,39.2L20.2,39.2L20.2,39.2L20.2,39.2C20.2,39.1,20.2,39.1,20.2,39.2L20.2,39.2L20.2,39.2L20.2,39.2
		L20.2,39.2z"/>
	<path class="st0" d="M26.3,39.2L26.3,39.2L26.3,39.2L26.3,39.2C26.3,39.1,26.4,39.1,26.3,39.2C26.4,39.2,26.4,39.2,26.3,39.2
		L26.3,39.2C26.4,39.2,26.3,39.2,26.3,39.2L26.3,39.2z"/>
	<path class="st0" d="M36.4,39.2L36.4,39.2L36.4,39.2C36.4,39.1,36.4,39.1,36.4,39.2C36.4,39.1,36.4,39.1,36.4,39.2
		C36.4,39.1,36.4,39.1,36.4,39.2C36.4,39.1,36.4,39.2,36.4,39.2L36.4,39.2L36.4,39.2z"/>
	<path class="st0" d="M20.1,39L20.1,39C20.1,39,20.1,38.9,20.1,39C20.1,38.9,20.1,38.9,20.1,39C20.1,38.9,20.1,38.9,20.1,39
		C20.1,38.9,20.1,38.9,20.1,39C20.1,38.9,20.1,38.9,20.1,39L20.1,39L20.1,39z"/>
	<path class="st0" d="M26.4,39L26.4,39C26.4,38.9,26.4,38.9,26.4,39C26.4,38.9,26.4,38.9,26.4,39C26.4,38.9,26.4,38.9,26.4,39
		C26.5,38.9,26.5,38.9,26.4,39C26.4,38.9,26.4,38.9,26.4,39L26.4,39L26.4,39z"/>
	<path class="st0" d="M36.3,38.9L36.3,38.9L36.3,38.9L36.3,38.9C36.3,38.8,36.3,38.8,36.3,38.9L36.3,38.9L36.3,38.9
		C36.4,38.9,36.4,38.9,36.3,38.9C36.3,39,36.3,39,36.3,38.9z"/>
	<path class="st0" d="M13.3,38.8L13.3,38.8L13.3,38.8C13.3,38.7,13.3,38.7,13.3,38.8C13.3,38.7,13.3,38.7,13.3,38.8
		C13.3,38.7,13.3,38.8,13.3,38.8L13.3,38.8L13.3,38.8L13.3,38.8z"/>
	<path class="st0" d="M33.2,38.8L33.2,38.8L33.2,38.8C33.2,38.7,33.2,38.7,33.2,38.8C33.2,38.7,33.2,38.7,33.2,38.8
		C33.2,38.7,33.2,38.7,33.2,38.8L33.2,38.8L33.2,38.8L33.2,38.8z"/>
	<path class="st0" d="M10.2,38.8L10.2,38.8C10.2,38.7,10.2,38.7,10.2,38.8C10.2,38.7,10.2,38.7,10.2,38.8
		C10.2,38.7,10.2,38.7,10.2,38.8C10.3,38.7,10.3,38.7,10.2,38.8C10.2,38.7,10.2,38.7,10.2,38.8L10.2,38.8L10.2,38.8z"/>
	<path class="st0" d="M20,38.7L20,38.7L20,38.7C20,38.7,20,38.6,20,38.7C20,38.6,20,38.6,20,38.7C20,38.6,20,38.6,20,38.7L20,38.7
		L20,38.7L20,38.7z"/>
	<path class="st0" d="M26.5,38.7L26.5,38.7L26.5,38.7C26.5,38.7,26.5,38.6,26.5,38.7C26.5,38.6,26.5,38.6,26.5,38.7
		C26.6,38.6,26.6,38.7,26.5,38.7L26.5,38.7L26.5,38.7L26.5,38.7z"/>
	<path class="st0" d="M36.2,38.7L36.2,38.7C36.2,38.7,36.2,38.6,36.2,38.7C36.2,38.6,36.2,38.6,36.2,38.7
		C36.2,38.6,36.2,38.6,36.2,38.7C36.2,38.6,36.2,38.6,36.2,38.7C36.2,38.6,36.2,38.6,36.2,38.7C36.3,38.7,36.3,38.7,36.2,38.7
		L36.2,38.7z"/>
	<path class="st0" d="M10.3,38.5L10.3,38.5L10.3,38.5C10.3,38.4,10.3,38.4,10.3,38.5C10.3,38.4,10.3,38.4,10.3,38.5
		C10.3,38.4,10.3,38.5,10.3,38.5L10.3,38.5L10.3,38.5L10.3,38.5z"/>
	<path class="st0" d="M19.9,38.5L19.9,38.5C19.9,38.4,19.9,38.4,19.9,38.5C19.9,38.4,19.9,38.4,19.9,38.5
		C19.9,38.4,19.9,38.4,19.9,38.5C19.9,38.4,19.9,38.4,19.9,38.5C19.9,38.4,19.9,38.4,19.9,38.5C19.9,38.4,19.9,38.5,19.9,38.5
		L19.9,38.5z"/>
	<path class="st0" d="M26.6,38.5C26.6,38.4,26.6,38.4,26.6,38.5C26.6,38.4,26.6,38.4,26.6,38.5C26.6,38.4,26.6,38.4,26.6,38.5
		C26.6,38.4,26.6,38.4,26.6,38.5C26.6,38.4,26.6,38.4,26.6,38.5C26.6,38.4,26.6,38.4,26.6,38.5C26.6,38.4,26.6,38.5,26.6,38.5
		L26.6,38.5z"/>
	<path class="st0" d="M36.1,38.4L36.1,38.4C36.1,38.3,36.1,38.3,36.1,38.4C36.1,38.3,36.1,38.3,36.1,38.4
		C36.1,38.3,36.1,38.3,36.1,38.4C36.1,38.3,36.1,38.3,36.1,38.4C36.1,38.3,36.1,38.3,36.1,38.4C36.2,38.4,36.2,38.4,36.1,38.4
		L36.1,38.4z"/>
	<path class="st0" d="M13.5,38.2L13.5,38.2L13.5,38.2L13.5,38.2C13.5,38.1,13.5,38.1,13.5,38.2L13.5,38.2L13.5,38.2L13.5,38.2
		C13.5,38.1,13.5,38.2,13.5,38.2C13.6,38.2,13.5,38.2,13.5,38.2L13.5,38.2C13.5,38.2,13.5,38.3,13.5,38.2z"/>
	<path class="st0" d="M33,38.2L33,38.2L33,38.2L33,38.2C33,38.1,33,38.1,33,38.2L33,38.2L33,38.2C33,38.1,33,38.1,33,38.2L33,38.2
		L33,38.2L33,38.2C33,38.2,33,38.3,33,38.2z"/>
	<path class="st0" d="M19.8,38.2L19.8,38.2L19.8,38.2C19.8,38.1,19.8,38.1,19.8,38.2C19.8,38.1,19.8,38.1,19.8,38.2
		C19.8,38.1,19.8,38.1,19.8,38.2C19.8,38.1,19.8,38.2,19.8,38.2C19.9,38.2,19.9,38.2,19.8,38.2L19.8,38.2z"/>
	<path class="st0" d="M26.7,38.2L26.7,38.2L26.7,38.2C26.7,38.1,26.7,38.1,26.7,38.2C26.7,38.1,26.7,38.1,26.7,38.2
		C26.7,38.1,26.7,38.1,26.7,38.2L26.7,38.2L26.7,38.2L26.7,38.2z"/>
	<path class="st0" d="M36,38.1L36,38.1L36,38.1C36,38,36,38,36,38.1C36,38,36,38,36,38.1C36,38,36,38,36,38.1L36,38.1
		C36.1,38.1,36.1,38.1,36,38.1L36,38.1z"/>
	<path class="st0" d="M10.5,37.9L10.5,37.9L10.5,37.9L10.5,37.9C10.5,37.8,10.5,37.9,10.5,37.9C10.6,37.9,10.5,37.9,10.5,37.9
		L10.5,37.9L10.5,37.9C10.5,38,10.5,37.9,10.5,37.9z"/>
	<path class="st0" d="M19.7,37.9L19.7,37.9L19.7,37.9L19.7,37.9C19.7,37.8,19.7,37.8,19.7,37.9L19.7,37.9L19.7,37.9
		C19.8,37.9,19.8,37.9,19.7,37.9C19.7,38,19.7,38,19.7,37.9z"/>
	<path class="st0" d="M26.8,37.9L26.8,37.9L26.8,37.9L26.8,37.9C26.8,37.8,26.8,37.9,26.8,37.9L26.8,37.9L26.8,37.9L26.8,37.9
		C26.8,38,26.8,37.9,26.8,37.9z"/>
	<path class="st0" d="M35.9,37.9C35.9,37.9,35.9,37.8,35.9,37.9C35.9,37.8,35.9,37.8,35.9,37.9C35.9,37.8,35.9,37.8,35.9,37.9
		C35.9,37.8,35.9,37.8,35.9,37.9C35.9,37.8,35.9,37.8,35.9,37.9C35.9,37.8,36,37.8,35.9,37.9C36,37.8,36,37.8,35.9,37.9L35.9,37.9z"
		/>
	<path class="st0" d="M10.6,37.7L10.6,37.7C10.6,37.6,10.6,37.6,10.6,37.7C10.6,37.6,10.6,37.6,10.6,37.7
		C10.6,37.6,10.6,37.6,10.6,37.7C10.6,37.6,10.6,37.6,10.6,37.7C10.6,37.6,10.6,37.7,10.6,37.7L10.6,37.7L10.6,37.7z"/>
	<path class="st0" d="M19.6,37.7L19.6,37.7C19.6,37.7,19.6,37.6,19.6,37.7C19.6,37.6,19.6,37.6,19.6,37.7
		C19.6,37.6,19.6,37.6,19.6,37.7C19.6,37.6,19.6,37.6,19.6,37.7C19.6,37.6,19.7,37.6,19.6,37.7C19.7,37.7,19.7,37.7,19.6,37.7
		L19.6,37.7z"/>
	<path class="st0" d="M26.9,37.7L26.9,37.7C26.9,37.6,26.9,37.6,26.9,37.7C26.9,37.6,26.9,37.6,26.9,37.7
		C26.9,37.6,26.9,37.6,26.9,37.7C26.9,37.6,26.9,37.6,26.9,37.7C26.9,37.6,26.9,37.7,26.9,37.7L26.9,37.7L26.9,37.7z"/>
	<path class="st0" d="M13.7,37.7C13.7,37.7,13.7,37.6,13.7,37.7C13.7,37.6,13.7,37.6,13.7,37.7C13.7,37.6,13.7,37.6,13.7,37.7
		C13.7,37.6,13.7,37.6,13.7,37.7L13.7,37.7L13.7,37.7L13.7,37.7C13.7,37.6,13.7,37.6,13.7,37.7C13.8,37.6,13.7,37.6,13.7,37.7
		C13.7,37.6,13.7,37.7,13.7,37.7L13.7,37.7z"/>
	<path class="st0" d="M32.8,37.7L32.8,37.7C32.8,37.6,32.8,37.6,32.8,37.7C32.8,37.6,32.8,37.6,32.8,37.7
		C32.8,37.6,32.8,37.6,32.8,37.7L32.8,37.7L32.8,37.7C32.8,37.6,32.8,37.6,32.8,37.7C32.8,37.6,32.8,37.6,32.8,37.7
		C32.8,37.6,32.8,37.6,32.8,37.7C32.8,37.6,32.8,37.7,32.8,37.7L32.8,37.7z"/>
	<path class="st0" d="M35.8,37.5L35.8,37.5L35.8,37.5L35.8,37.5C35.8,37.4,35.8,37.4,35.8,37.5L35.8,37.5L35.8,37.5
		C35.9,37.5,35.9,37.5,35.8,37.5L35.8,37.5z"/>
	<path class="st0" d="M19.5,37.4L19.5,37.4L19.5,37.4C19.5,37.4,19.5,37.3,19.5,37.4C19.5,37.3,19.5,37.3,19.5,37.4
		C19.6,37.3,19.6,37.4,19.5,37.4C19.6,37.4,19.6,37.4,19.5,37.4C19.6,37.4,19.6,37.4,19.5,37.4C19.6,37.4,19.5,37.4,19.5,37.4z"/>
	<path class="st0" d="M27,37.4C26.9,37.4,27,37.4,27,37.4L27,37.4C27,37.4,27,37.3,27,37.4C27,37.3,27,37.3,27,37.4L27,37.4L27,37.4
		L27,37.4L27,37.4z"/>
	<path class="st0" d="M35.7,37.3L35.7,37.3C35.7,37.3,35.7,37.2,35.7,37.3C35.7,37.2,35.7,37.2,35.7,37.3
		C35.7,37.2,35.7,37.2,35.7,37.3C35.7,37.2,35.7,37.2,35.7,37.3C35.7,37.2,35.7,37.2,35.7,37.3C35.8,37.3,35.8,37.3,35.7,37.3
		L35.7,37.3z"/>
	<path class="st0" d="M19.5,37.2C19.5,37.2,19.4,37.2,19.5,37.2C19.4,37.1,19.4,37.1,19.5,37.2C19.4,37.1,19.4,37.1,19.5,37.2
		C19.4,37.1,19.5,37.1,19.5,37.2C19.5,37.1,19.5,37.1,19.5,37.2C19.5,37.1,19.5,37.1,19.5,37.2C19.5,37.1,19.5,37.2,19.5,37.2
		L19.5,37.2z"/>
	<path class="st0" d="M27,37.2C27,37.2,27,37.1,27,37.2C27.1,37.1,27.1,37.1,27,37.2C27.1,37.1,27.1,37.1,27,37.2
		C27.1,37.1,27.1,37.1,27,37.2C27.1,37.1,27.1,37.1,27,37.2C27.1,37.1,27.1,37.1,27,37.2C27.1,37.2,27.1,37.2,27,37.2
		C27.1,37.2,27.1,37.2,27,37.2z"/>
	<path class="st0" d="M10.8,37.1L10.8,37.1L10.8,37.1C10.8,37,10.8,37,10.8,37.1C10.8,37,10.8,37,10.8,37.1
		C10.8,37,10.8,37.1,10.8,37.1L10.8,37.1L10.8,37.1L10.8,37.1z"/>
	<path class="st0" d="M13.9,37.1L13.9,37.1C13.9,37.1,13.9,37,13.9,37.1C13.9,37,13.9,37,13.9,37.1C13.9,37,13.9,37,13.9,37.1
		L13.9,37.1L13.9,37.1L13.9,37.1C13.9,37,13.9,37,13.9,37.1C14,37,14,37,13.9,37.1L13.9,37.1L13.9,37.1z"/>
	<path class="st0" d="M32.6,37.1L32.6,37.1C32.6,37.1,32.6,37,32.6,37.1C32.6,37,32.6,37,32.6,37.1C32.6,37,32.6,37,32.6,37.1
		L32.6,37.1L32.6,37.1C32.6,37,32.6,37,32.6,37.1C32.6,37,32.6,37,32.6,37.1C32.6,37,32.6,37.1,32.6,37.1L32.6,37.1L32.6,37.1z"/>
	<path class="st0" d="M35.6,37L35.6,37L35.6,37C35.6,37,35.6,36.9,35.6,37C35.6,36.9,35.6,36.9,35.6,37C35.6,36.9,35.6,36.9,35.6,37
		C35.6,37,35.7,37,35.6,37C35.7,37,35.7,37,35.6,37L35.6,37z"/>
	<path class="st0" d="M19.4,36.9L19.4,36.9C19.4,36.9,19.3,36.9,19.4,36.9C19.3,36.8,19.3,36.8,19.4,36.9
		C19.4,36.8,19.4,36.8,19.4,36.9C19.4,36.8,19.4,36.8,19.4,36.9L19.4,36.9L19.4,36.9L19.4,36.9z"/>
	<path class="st0" d="M27.1,36.9L27.1,36.9C27.2,36.9,27.2,36.9,27.1,36.9C27.2,36.8,27.2,36.8,27.1,36.9
		C27.2,36.8,27.2,36.8,27.1,36.9C27.2,36.8,27.2,36.8,27.1,36.9C27.2,36.9,27.2,36.9,27.1,36.9C27.2,36.9,27.2,36.9,27.1,36.9
		C27.2,36.9,27.1,36.9,27.1,36.9z"/>
	<path class="st0" d="M10.9,36.8L10.9,36.8L10.9,36.8L10.9,36.8L10.9,36.8L10.9,36.8L10.9,36.8L10.9,36.8
		C10.9,36.9,10.9,36.9,10.9,36.8z"/>
	<path class="st0" d="M35.5,36.7L35.5,36.7L35.5,36.7C35.5,36.6,35.5,36.6,35.5,36.7C35.5,36.6,35.5,36.6,35.5,36.7
		C35.5,36.6,35.5,36.6,35.5,36.7C35.5,36.6,35.5,36.7,35.5,36.7C35.6,36.7,35.6,36.7,35.5,36.7L35.5,36.7z"/>
	<path class="st0" d="M19.3,36.7C19.3,36.6,19.3,36.6,19.3,36.7C19.3,36.6,19.3,36.6,19.3,36.7C19.2,36.6,19.2,36.6,19.3,36.7
		C19.3,36.6,19.3,36.6,19.3,36.7C19.3,36.6,19.3,36.6,19.3,36.7C19.3,36.6,19.3,36.6,19.3,36.7C19.3,36.6,19.3,36.6,19.3,36.7
		L19.3,36.7z"/>
	<path class="st0" d="M27.2,36.6L27.2,36.6C27.3,36.6,27.3,36.6,27.2,36.6L27.2,36.6C27.3,36.6,27.3,36.6,27.2,36.6
		C27.3,36.6,27.3,36.6,27.2,36.6C27.3,36.6,27.3,36.6,27.2,36.6C27.3,36.6,27.3,36.6,27.2,36.6C27.3,36.7,27.2,36.7,27.2,36.6z"/>
	<path class="st0" d="M14.1,36.5L14.1,36.5L14.1,36.5C14.1,36.4,14.1,36.4,14.1,36.5C14.1,36.4,14.1,36.4,14.1,36.5L14.1,36.5
		L14.1,36.5L14.1,36.5C14.2,36.4,14.1,36.4,14.1,36.5C14.2,36.4,14.2,36.5,14.1,36.5L14.1,36.5L14.1,36.5z"/>
	<path class="st0" d="M32.4,36.5L32.4,36.5L32.4,36.5C32.4,36.5,32.4,36.4,32.4,36.5C32.4,36.4,32.4,36.4,32.4,36.5L32.4,36.5
		L32.4,36.5C32.4,36.4,32.4,36.4,32.4,36.5C32.4,36.4,32.4,36.4,32.4,36.5L32.4,36.5L32.4,36.5L32.4,36.5z"/>
	<path class="st0" d="M35.4,36.5C35.4,36.4,35.4,36.4,35.4,36.5C35.4,36.4,35.4,36.4,35.4,36.5C35.4,36.4,35.4,36.4,35.4,36.5
		C35.4,36.4,35.4,36.3,35.4,36.5C35.4,36.4,35.4,36.4,35.4,36.5C35.4,36.4,35.5,36.4,35.4,36.5C35.5,36.4,35.5,36.4,35.4,36.5
		L35.4,36.5z"/>
	<path class="st0" d="M19.2,36.4L19.2,36.4C19.2,36.4,19.2,36.3,19.2,36.4C19.1,36.3,19.1,36.3,19.2,36.4
		C19.2,36.3,19.2,36.3,19.2,36.4C19.2,36.3,19.2,36.3,19.2,36.4C19.2,36.3,19.2,36.3,19.2,36.4L19.2,36.4L19.2,36.4z"/>
	<path class="st0" d="M27.3,36.4L27.3,36.4C27.3,36.3,27.3,36.3,27.3,36.4C27.3,36.3,27.3,36.3,27.3,36.4
		C27.4,36.3,27.4,36.3,27.3,36.4C27.4,36.3,27.4,36.3,27.3,36.4C27.4,36.3,27.4,36.4,27.3,36.4C27.4,36.4,27.4,36.4,27.3,36.4
		L27.3,36.4z"/>
	<path class="st0" d="M11.1,36.3L11.1,36.3C11.1,36.2,11.1,36.2,11.1,36.3C11.1,36.2,11.1,36.2,11.1,36.3
		C11.1,36.2,11.1,36.2,11.1,36.3C11.1,36.2,11.1,36.2,11.1,36.3C11.1,36.2,11.1,36.2,11.1,36.3L11.1,36.3L11.1,36.3z"/>
	<path class="st0" d="M35.3,36.2L35.3,36.2C35.3,36.2,35.3,36.1,35.3,36.2C35.3,36.1,35.3,36.1,35.3,36.2
		C35.3,36.1,35.3,36.1,35.3,36.2C35.3,36.1,35.3,36.1,35.3,36.2C35.4,36.1,35.4,36.1,35.3,36.2C35.4,36.2,35.4,36.2,35.3,36.2
		C35.4,36.2,35.3,36.2,35.3,36.2z"/>
	<path class="st0" d="M19.1,36.1L19.1,36.1L19.1,36.1C19.1,36.1,19.1,36,19.1,36.1C19.1,36,19.1,36,19.1,36.1
		C19.1,36,19.1,36.1,19.1,36.1L19.1,36.1L19.1,36.1L19.1,36.1z"/>
	<path class="st0" d="M27.4,36.1L27.4,36.1L27.4,36.1C27.4,36.1,27.4,36,27.4,36.1C27.5,36,27.5,36,27.4,36.1
		C27.5,36.1,27.5,36.1,27.4,36.1C27.5,36.1,27.4,36.1,27.4,36.1C27.5,36.1,27.5,36.1,27.4,36.1L27.4,36.1z"/>
	<path class="st0" d="M11.2,36L11.2,36L11.2,36C11.2,35.9,11.2,35.9,11.2,36C11.2,35.9,11.2,35.9,11.2,36C11.2,35.9,11.2,36,11.2,36
		L11.2,36L11.2,36L11.2,36z"/>
	<path class="st0" d="M14.3,35.9L14.3,35.9L14.3,35.9L14.3,35.9C14.3,35.8,14.3,35.8,14.3,35.9L14.3,35.9L14.3,35.9L14.3,35.9
		C14.4,35.9,14.4,35.9,14.3,35.9C14.4,35.9,14.4,35.9,14.3,35.9L14.3,35.9C14.3,35.9,14.3,36,14.3,35.9z"/>
	<path class="st0" d="M32.2,36C32.2,35.9,32.2,35.9,32.2,36C32.2,35.9,32.2,35.9,32.2,36C32.1,35.9,32.1,35.9,32.2,36
		C32.2,35.9,32.2,35.9,32.2,36L32.2,36L32.2,36C32.2,35.8,32.2,35.8,32.2,36C32.2,35.9,32.2,35.9,32.2,36
		C32.2,35.9,32.2,35.9,32.2,36C32.2,35.9,32.2,35.9,32.2,36L32.2,36z"/>
	<path class="st0" d="M19,35.9L19,35.9C19,35.8,19,35.8,19,35.9C19,35.8,19,35.8,19,35.9C19,35.8,19,35.8,19,35.9
		C19,35.8,19,35.8,19,35.9C19,35.8,19,35.8,19,35.9L19,35.9L19,35.9z"/>
	<path class="st0" d="M27.5,35.9C27.5,35.9,27.5,35.8,27.5,35.9C27.5,35.8,27.5,35.8,27.5,35.9C27.5,35.8,27.5,35.8,27.5,35.9
		C27.5,35.8,27.6,35.8,27.5,35.9C27.6,35.8,27.6,35.8,27.5,35.9C27.5,35.8,27.5,35.8,27.5,35.9C27.6,35.9,27.5,35.9,27.5,35.9
		L27.5,35.9z"/>
	<path class="st0" d="M35.2,35.9L35.2,35.9C35.2,35.8,35.2,35.8,35.2,35.9C35.2,35.8,35.2,35.8,35.2,35.9
		C35.2,35.8,35.2,35.8,35.2,35.9C35.2,35.8,35.2,35.8,35.2,35.9C35.2,35.8,35.2,35.8,35.2,35.9C35.3,35.9,35.3,35.9,35.2,35.9
		L35.2,35.9z"/>
	<path class="st0" d="M22.2,35.7C22.2,35.7,22.1,35.7,22.2,35.7C22.1,35.7,22.1,35.7,22.2,35.7C22.1,35.7,22.1,35.6,22.2,35.7
		C22.1,35.6,22.2,35.6,22.2,35.7C22.2,35.6,22.2,35.7,22.2,35.7L22.2,35.7L22.2,35.7L22.2,35.7z"/>
	<path class="st0" d="M24.3,35.7L24.3,35.7C24.4,35.7,24.4,35.7,24.3,35.7C24.4,35.7,24.4,35.6,24.3,35.7
		C24.4,35.6,24.4,35.6,24.3,35.7C24.4,35.7,24.4,35.7,24.3,35.7C24.4,35.7,24.4,35.7,24.3,35.7C24.4,35.7,24.4,35.7,24.3,35.7
		C24.4,35.7,24.4,35.7,24.3,35.7z"/>
	<path class="st0" d="M18.9,35.6L18.9,35.6L18.9,35.6C18.9,35.5,18.9,35.5,18.9,35.6C18.9,35.5,18.9,35.5,18.9,35.6
		C18.9,35.5,18.9,35.5,18.9,35.6L18.9,35.6L18.9,35.6L18.9,35.6z"/>
	<path class="st0" d="M27.6,35.6L27.6,35.6L27.6,35.6C27.6,35.5,27.6,35.5,27.6,35.6C27.6,35.5,27.7,35.5,27.6,35.6
		C27.7,35.5,27.7,35.6,27.6,35.6L27.6,35.6L27.6,35.6L27.6,35.6z"/>
	<path class="st0" d="M35.1,35.6L35.1,35.6L35.1,35.6C35.1,35.5,35.1,35.5,35.1,35.6C35.1,35.5,35.1,35.5,35.1,35.6
		C35.1,35.5,35.1,35.5,35.1,35.6C35.1,35.6,35.2,35.6,35.1,35.6C35.2,35.6,35.2,35.6,35.1,35.6L35.1,35.6z"/>
	<path class="st0" d="M22.1,35.5L22.1,35.5C22.1,35.4,22,35.4,22.1,35.5C22,35.4,22,35.4,22.1,35.5C22.1,35.4,22.1,35.4,22.1,35.5
		C22.1,35.4,22.1,35.4,22.1,35.5C22.1,35.4,22.1,35.4,22.1,35.5C22.1,35.4,22.1,35.5,22.1,35.5L22.1,35.5z"/>
	<path class="st0" d="M24.4,35.5C24.4,35.5,24.4,35.4,24.4,35.5C24.5,35.4,24.5,35.4,24.4,35.5C24.5,35.4,24.5,35.4,24.4,35.5
		C24.5,35.4,24.5,35.4,24.4,35.5C24.5,35.4,24.5,35.4,24.4,35.5C24.5,35.4,24.5,35.4,24.4,35.5C24.5,35.5,24.5,35.5,24.4,35.5
		C24.5,35.5,24.4,35.5,24.4,35.5z"/>
	<path class="st0" d="M11.4,35.4L11.4,35.4L11.4,35.4L11.4,35.4L11.4,35.4L11.4,35.4L11.4,35.4L11.4,35.4
		C11.4,35.5,11.4,35.5,11.4,35.4z"/>
	<path class="st0" d="M14.5,35.4L14.5,35.4C14.5,35.3,14.5,35.3,14.5,35.4C14.5,35.3,14.5,35.3,14.5,35.4
		C14.5,35.3,14.5,35.3,14.5,35.4L14.5,35.4L14.5,35.4L14.5,35.4C14.6,35.3,14.6,35.3,14.5,35.4C14.6,35.3,14.6,35.3,14.5,35.4
		C14.5,35.3,14.5,35.4,14.5,35.4L14.5,35.4z"/>
	<path class="st0" d="M32,35.4L32,35.4C32,35.3,32,35.3,32,35.4C31.9,35.3,31.9,35.3,32,35.4C32,35.3,32,35.3,32,35.4L32,35.4
		L32,35.4C32,35.3,32,35.3,32,35.4C32,35.3,32,35.3,32,35.4C32,35.3,32,35.3,32,35.4L32,35.4L32,35.4z"/>
	<path class="st0" d="M18.8,35.4C18.8,35.4,18.8,35.3,18.8,35.4C18.8,35.3,18.8,35.3,18.8,35.4C18.8,35.3,18.8,35.3,18.8,35.4
		C18.8,35.3,18.8,35.3,18.8,35.4C18.8,35.3,18.8,35.3,18.8,35.4C18.8,35.3,18.8,35.3,18.8,35.4C18.8,35.3,18.8,35.4,18.8,35.4
		L18.8,35.4z"/>
	<path class="st0" d="M27.7,35.4C27.7,35.3,27.7,35.3,27.7,35.4C27.7,35.3,27.7,35.3,27.7,35.4C27.7,35.3,27.7,35.3,27.7,35.4
		C27.7,35.3,27.7,35.3,27.7,35.4C27.8,35.3,27.8,35.3,27.7,35.4C27.7,35.3,27.7,35.3,27.7,35.4C27.7,35.3,27.7,35.4,27.7,35.4
		L27.7,35.4z"/>
	<path class="st0" d="M35,35.4C35,35.4,35,35.3,35,35.4C35,35.3,35,35.3,35,35.4C35,35.3,35,35.3,35,35.4C35,35.3,35,35.3,35,35.4
		C35.1,35.3,35.1,35.3,35,35.4C35.1,35.3,35.1,35.3,35,35.4C35.1,35.3,35.1,35.4,35,35.4C35.1,35.4,35,35.4,35,35.4z"/>
	<path class="st0" d="M22,35.2L22,35.2L22,35.2C21.9,35.1,21.9,35.1,22,35.2C22,35.1,22,35.1,22,35.2C22,35.1,22,35.1,22,35.2
		C22,35.1,22,35.2,22,35.2L22,35.2L22,35.2z"/>
	<path class="st0" d="M24.5,35.2L24.5,35.2C24.6,35.2,24.6,35.2,24.5,35.2C24.5,35.1,24.5,35.1,24.5,35.2
		C24.6,35.1,24.6,35.1,24.5,35.2C24.6,35.1,24.6,35.1,24.5,35.2C24.6,35.2,24.6,35.2,24.5,35.2C24.6,35.2,24.6,35.2,24.5,35.2
		C24.6,35.2,24.5,35.2,24.5,35.2z"/>
	<path class="st0" d="M11.5,35.2L11.5,35.2C11.5,35.1,11.5,35.1,11.5,35.2C11.5,35.1,11.5,35.1,11.5,35.2
		C11.5,35.1,11.5,35.1,11.5,35.2C11.5,35.1,11.5,35.1,11.5,35.2C11.5,35.1,11.5,35.2,11.5,35.2L11.5,35.2L11.5,35.2z"/>
	<path class="st0" d="M18.7,35.1L18.7,35.1L18.7,35.1C18.7,35,18.7,35,18.7,35.1C18.7,35,18.7,35,18.7,35.1
		C18.7,35,18.7,35,18.7,35.1C18.7,35,18.7,35.1,18.7,35.1L18.7,35.1L18.7,35.1z"/>
	<path class="st0" d="M27.8,35.1L27.8,35.1C27.8,35.1,27.8,35,27.8,35.1C27.8,35,27.8,35,27.8,35.1C27.8,35,27.8,35,27.8,35.1
		C27.8,35,27.8,35,27.8,35.1L27.8,35.1L27.8,35.1L27.8,35.1z"/>
	<path class="st0" d="M34.9,35L34.9,35L34.9,35L34.9,35C34.9,34.9,34.9,34.9,34.9,35L34.9,35C34.9,35,35,35,34.9,35
		C35,35,35,35,34.9,35C34.9,35,34.9,35.1,34.9,35z"/>
	<path class="st0" d="M21.9,35C21.9,34.9,21.9,34.9,21.9,35C21.9,34.9,21.9,34.9,21.9,35C21.8,34.9,21.8,34.9,21.9,35
		C21.9,34.9,21.9,34.9,21.9,35C21.9,34.9,21.9,34.9,21.9,35C21.9,34.9,21.9,34.9,21.9,35C21.9,34.9,21.9,34.9,21.9,35L21.9,35z"/>
	<path class="st0" d="M24.6,34.9L24.6,34.9L24.6,34.9L24.6,34.9C24.7,34.9,24.7,34.9,24.6,34.9C24.7,34.9,24.7,34.9,24.6,34.9
		C24.7,34.9,24.7,34.9,24.6,34.9C24.7,34.9,24.7,34.9,24.6,34.9C24.6,35,24.6,35,24.6,34.9z"/>
	<path class="st0" d="M18.6,34.8L18.6,34.8L18.6,34.8L18.6,34.8C18.6,34.7,18.6,34.7,18.6,34.8L18.6,34.8L18.6,34.8
		C18.7,34.8,18.7,34.8,18.6,34.8L18.6,34.8z"/>
	<path class="st0" d="M27.9,34.8L27.9,34.8L27.9,34.8L27.9,34.8C27.9,34.7,27.9,34.7,27.9,34.8L27.9,34.8L27.9,34.8L27.9,34.8
		L27.9,34.8z"/>
	<path class="st0" d="M14.7,34.8L14.7,34.8C14.7,34.8,14.7,34.7,14.7,34.8C14.7,34.7,14.7,34.7,14.7,34.8
		C14.7,34.7,14.7,34.7,14.7,34.8L14.7,34.8L14.7,34.8L14.7,34.8C14.8,34.7,14.8,34.7,14.7,34.8C14.8,34.7,14.8,34.7,14.7,34.8
		L14.7,34.8L14.7,34.8z"/>
	<path class="st0" d="M31.8,34.8L31.8,34.8L31.8,34.8C31.7,34.7,31.7,34.7,31.8,34.8C31.8,34.7,31.8,34.7,31.8,34.8L31.8,34.8
		L31.8,34.8C31.8,34.7,31.8,34.7,31.8,34.8C31.8,34.7,31.8,34.7,31.8,34.8C31.8,34.7,31.8,34.8,31.8,34.8L31.8,34.8L31.8,34.8z"/>
	<path class="st0" d="M34.8,34.8L34.8,34.8C34.8,34.8,34.8,34.7,34.8,34.8C34.8,34.7,34.8,34.7,34.8,34.8
		C34.8,34.7,34.8,34.7,34.8,34.8C34.8,34.7,34.9,34.7,34.8,34.8C34.9,34.7,34.9,34.7,34.8,34.8C34.9,34.8,34.9,34.8,34.8,34.8
		C34.9,34.8,34.8,34.8,34.8,34.8z"/>
	<path class="st0" d="M21.8,34.7L21.8,34.7C21.8,34.7,21.8,34.6,21.8,34.7C21.8,34.6,21.8,34.6,21.8,34.7
		C21.8,34.6,21.8,34.6,21.8,34.7C21.8,34.6,21.8,34.6,21.8,34.7C21.8,34.6,21.8,34.6,21.8,34.7L21.8,34.7L21.8,34.7z"/>
	<path class="st0" d="M24.7,34.7L24.7,34.7C24.7,34.6,24.7,34.6,24.7,34.7C24.7,34.6,24.7,34.6,24.7,34.7
		C24.8,34.6,24.8,34.6,24.7,34.7C24.8,34.6,24.8,34.6,24.7,34.7C24.8,34.6,24.7,34.7,24.7,34.7C24.8,34.7,24.8,34.7,24.7,34.7
		L24.7,34.7z"/>
	<path class="st0" d="M11.7,34.6L11.7,34.6L11.7,34.6C11.7,34.5,11.7,34.5,11.7,34.6C11.7,34.5,11.7,34.5,11.7,34.6
		C11.7,34.5,11.7,34.6,11.7,34.6L11.7,34.6L11.7,34.6L11.7,34.6z"/>
	<path class="st0" d="M18.5,34.6L18.5,34.6C18.5,34.5,18.5,34.5,18.5,34.6C18.5,34.5,18.5,34.5,18.5,34.6
		C18.5,34.5,18.5,34.5,18.5,34.6C18.5,34.5,18.5,34.5,18.5,34.6C18.5,34.5,18.5,34.5,18.5,34.6C18.6,34.6,18.6,34.6,18.5,34.6
		L18.5,34.6z"/>
	<path class="st0" d="M28,34.6L28,34.6C28,34.5,28,34.5,28,34.6C28,34.5,28,34.5,28,34.6C28,34.5,28,34.5,28,34.6
		C28,34.5,28,34.5,28,34.6C28,34.5,28,34.5,28,34.6L28,34.6L28,34.6z"/>
	<path class="st0" d="M34.8,34.5C34.7,34.5,34.7,34.5,34.8,34.5C34.7,34.5,34.7,34.5,34.8,34.5C34.7,34.5,34.7,34.4,34.8,34.5
		C34.7,34.4,34.8,34.4,34.8,34.5C34.8,34.4,34.8,34.4,34.8,34.5L34.8,34.5L34.8,34.5L34.8,34.5z"/>
	<path class="st0" d="M21.7,34.4L21.7,34.4L21.7,34.4C21.7,34.4,21.7,34.3,21.7,34.4C21.7,34.3,21.7,34.3,21.7,34.4
		C21.7,34.3,21.7,34.4,21.7,34.4L21.7,34.4L21.7,34.4L21.7,34.4z"/>
	<path class="st0" d="M24.8,34.4L24.8,34.4L24.8,34.4C24.8,34.4,24.8,34.3,24.8,34.4C24.8,34.3,24.9,34.3,24.8,34.4
		C24.9,34.4,24.9,34.4,24.8,34.4L24.8,34.4C24.9,34.4,24.8,34.4,24.8,34.4L24.8,34.4z"/>
	<path class="st0" d="M11.8,34.4C11.8,34.3,11.8,34.3,11.8,34.4C11.8,34.3,11.8,34.3,11.8,34.4C11.8,34.3,11.8,34.3,11.8,34.4
		C11.8,34.3,11.8,34.3,11.8,34.4C11.8,34.3,11.8,34.3,11.8,34.4C11.8,34.3,11.8,34.3,11.8,34.4C11.8,34.3,11.8,34.4,11.8,34.4
		L11.8,34.4z"/>
	<path class="st0" d="M18.4,34.3L18.4,34.3L18.4,34.3C18.4,34.3,18.4,34.2,18.4,34.3C18.4,34.2,18.4,34.2,18.4,34.3
		C18.4,34.2,18.4,34.2,18.4,34.3C18.4,34.3,18.5,34.3,18.4,34.3C18.5,34.3,18.5,34.3,18.4,34.3L18.4,34.3z"/>
	<path class="st0" d="M28.1,34.3L28.1,34.3L28.1,34.3C28.1,34.2,28.1,34.2,28.1,34.3C28.1,34.2,28.1,34.2,28.1,34.3
		C28.1,34.2,28.1,34.3,28.1,34.3L28.1,34.3L28.1,34.3L28.1,34.3z"/>
	<path class="st0" d="M14.9,34.2L14.9,34.2L14.9,34.2C14.9,34.2,14.9,34.1,14.9,34.2C14.9,34.1,14.9,34.1,14.9,34.2L14.9,34.2
		L14.9,34.2L14.9,34.2C15,34.1,15,34.1,14.9,34.2C15,34.1,15,34.2,14.9,34.2L14.9,34.2L14.9,34.2z"/>
	<path class="st0" d="M31.6,34.2L31.6,34.2L31.6,34.2C31.5,34.2,31.5,34.1,31.6,34.2C31.6,34.1,31.6,34.1,31.6,34.2L31.6,34.2
		L31.6,34.2C31.6,34.1,31.6,34.1,31.6,34.2C31.6,34.1,31.6,34.2,31.6,34.2L31.6,34.2L31.6,34.2L31.6,34.2z"/>
	<path class="st0" d="M34.6,34.2L34.6,34.2L34.6,34.2C34.6,34.1,34.6,34.1,34.6,34.2C34.6,34.1,34.6,34.1,34.6,34.2
		C34.6,34.1,34.6,34.1,34.6,34.2C34.7,34.2,34.7,34.2,34.6,34.2C34.7,34.2,34.7,34.2,34.6,34.2C34.7,34.2,34.6,34.2,34.6,34.2z"/>
	<path class="st0" d="M21.6,34.2L21.6,34.2C21.6,34.1,21.6,34.1,21.6,34.2C21.6,34.1,21.6,34.1,21.6,34.2
		C21.6,34.1,21.6,34.1,21.6,34.2C21.6,34.1,21.6,34.1,21.6,34.2C21.6,34.1,21.6,34.1,21.6,34.2L21.6,34.2L21.6,34.2z"/>
	<path class="st0" d="M24.9,34.2C24.9,34.2,24.9,34.1,24.9,34.2C24.9,34.1,24.9,34.1,24.9,34.2C24.9,34.1,24.9,34.1,24.9,34.2
		C24.9,34.1,25,34.1,24.9,34.2C25,34.1,25,34.1,24.9,34.2C24.9,34.1,24.9,34.1,24.9,34.2L24.9,34.2L24.9,34.2z"/>
	<path class="st0" d="M18.3,34.1C18.3,34.1,18.3,34,18.3,34.1C18.3,34,18.3,34,18.3,34.1C18.3,34,18.3,34,18.3,34.1
		C18.3,34,18.3,34,18.3,34.1C18.3,34,18.4,34,18.3,34.1C18.4,34,18.4,34,18.3,34.1C18.4,34,18.4,34.1,18.3,34.1
		C18.4,34.1,18.3,34.1,18.3,34.1z"/>
	<path class="st0" d="M28.2,34.1C28.2,34,28.2,34,28.2,34.1C28.2,34,28.2,34,28.2,34.1C28.2,34,28.2,34,28.2,34.1
		C28.2,34,28.2,34,28.2,34.1C28.2,34,28.2,34,28.2,34.1C28.2,34,28.2,34,28.2,34.1C28.2,34,28.2,34.1,28.2,34.1L28.2,34.1z"/>
	<path class="st0" d="M34.5,34C34.5,33.9,34.5,33.9,34.5,34C34.5,33.9,34.5,33.9,34.5,34C34.5,33.9,34.5,33.9,34.5,34
		C34.5,33.9,34.6,33.9,34.5,34C34.6,33.9,34.6,33.9,34.5,34C34.6,33.9,34.6,33.9,34.5,34C34.6,33.9,34.6,33.9,34.5,34
		C34.6,34,34.5,34,34.5,34z"/>
	<path class="st0" d="M21.5,33.9L21.5,33.9L21.5,33.9C21.5,33.8,21.5,33.8,21.5,33.9C21.5,33.8,21.5,33.8,21.5,33.9
		C21.5,33.8,21.5,33.8,21.5,33.9L21.5,33.9L21.5,33.9L21.5,33.9z"/>
	<path class="st0" d="M25,33.9L25,33.9L25,33.9C25,33.8,25,33.8,25,33.9C25,33.8,25,33.8,25,33.9C25.1,33.8,25.1,33.9,25,33.9
		L25,33.9L25,33.9L25,33.9z"/>
	<path class="st0" d="M18.3,33.8C18.2,33.8,18.2,33.8,18.3,33.8C18.2,33.8,18.2,33.8,18.3,33.8C18.2,33.7,18.2,33.7,18.3,33.8
		C18.2,33.7,18.3,33.7,18.3,33.8C18.3,33.7,18.3,33.7,18.3,33.8C18.3,33.7,18.3,33.8,18.3,33.8L18.3,33.8L18.3,33.8z"/>
	<path class="st0" d="M28.3,33.8C28.2,33.8,28.2,33.8,28.3,33.8C28.3,33.8,28.3,33.7,28.3,33.8C28.3,33.7,28.3,33.7,28.3,33.8
		C28.3,33.7,28.3,33.7,28.3,33.8C28.3,33.7,28.3,33.7,28.3,33.8L28.3,33.8L28.3,33.8L28.3,33.8z"/>
	<path class="st0" d="M12,33.8L12,33.8C12,33.7,12,33.7,12,33.8C12,33.7,12,33.7,12,33.8C12,33.7,12,33.7,12,33.8
		C12,33.7,12,33.7,12,33.8C12,33.7,12,33.7,12,33.8L12,33.8L12,33.8z"/>
	<path class="st0" d="M34.5,33.7L34.5,33.7C34.4,33.7,34.4,33.6,34.5,33.7C34.4,33.6,34.4,33.6,34.5,33.7
		C34.4,33.6,34.5,33.6,34.5,33.7C34.5,33.6,34.5,33.6,34.5,33.7C34.5,33.6,34.5,33.6,34.5,33.7L34.5,33.7L34.5,33.7z"/>
	<path class="st0" d="M15.1,33.7C15.1,33.6,15.1,33.6,15.1,33.7C15.1,33.6,15.1,33.6,15.1,33.7C15.1,33.6,15.1,33.6,15.1,33.7
		C15.1,33.6,15.1,33.6,15.1,33.7L15.1,33.7L15.1,33.7L15.1,33.7C15.2,33.6,15.2,33.6,15.1,33.7C15.2,33.6,15.2,33.6,15.1,33.7
		C15.1,33.6,15.1,33.6,15.1,33.7C15.2,33.7,15.1,33.7,15.1,33.7z"/>
	<path class="st0" d="M21.4,33.7C21.4,33.7,21.4,33.6,21.4,33.7C21.4,33.6,21.4,33.6,21.4,33.7C21.4,33.6,21.4,33.6,21.4,33.7
		C21.4,33.6,21.4,33.6,21.4,33.7C21.4,33.6,21.4,33.6,21.4,33.7C21.4,33.6,21.4,33.6,21.4,33.7C21.4,33.6,21.4,33.6,21.4,33.7
		L21.4,33.7z"/>
	<path class="st0" d="M25.1,33.6L25.1,33.6L25.1,33.6L25.1,33.6L25.1,33.6L25.1,33.6L25.1,33.6L25.1,33.6
		C25.1,33.7,25.1,33.7,25.1,33.6z"/>
	<path class="st0" d="M31.4,33.7C31.4,33.7,31.4,33.6,31.4,33.7C31.4,33.6,31.4,33.6,31.4,33.7C31.3,33.6,31.3,33.6,31.4,33.7
		C31.4,33.6,31.4,33.6,31.4,33.7L31.4,33.7L31.4,33.7C31.4,33.5,31.4,33.6,31.4,33.7C31.4,33.6,31.4,33.6,31.4,33.7
		C31.4,33.6,31.4,33.6,31.4,33.7C31.4,33.6,31.4,33.6,31.4,33.7L31.4,33.7z"/>
	<path class="st0" d="M18.2,33.5L18.2,33.5C18.2,33.5,18.1,33.5,18.2,33.5C18.1,33.5,18.1,33.5,18.2,33.5
		C18.2,33.4,18.2,33.4,18.2,33.5L18.2,33.5L18.2,33.5L18.2,33.5C18.2,33.6,18.2,33.6,18.2,33.5z"/>
	<path class="st0" d="M28.3,33.5L28.3,33.5C28.4,33.5,28.4,33.5,28.3,33.5C28.4,33.5,28.4,33.5,28.3,33.5
		C28.4,33.4,28.4,33.5,28.3,33.5C28.4,33.5,28.4,33.5,28.3,33.5C28.4,33.5,28.4,33.5,28.3,33.5C28.4,33.5,28.4,33.5,28.3,33.5
		C28.4,33.6,28.4,33.5,28.3,33.5z"/>
	<path class="st0" d="M12.1,33.5L12.1,33.5L12.1,33.5C12.1,33.5,12.1,33.4,12.1,33.5C12.1,33.4,12.1,33.4,12.1,33.5L12.1,33.5
		L12.1,33.5L12.1,33.5L12.1,33.5z"/>
	<path class="st0" d="M21.3,33.4L21.3,33.4L21.3,33.4C21.3,33.3,21.3,33.3,21.3,33.4C21.3,33.3,21.3,33.3,21.3,33.4
		C21.3,33.3,21.3,33.3,21.3,33.4C21.3,33.3,21.3,33.4,21.3,33.4C21.4,33.4,21.4,33.4,21.3,33.4L21.3,33.4z"/>
	<path class="st0" d="M25.2,33.4L25.2,33.4C25.2,33.4,25.2,33.3,25.2,33.4C25.2,33.3,25.2,33.3,25.2,33.4
		C25.2,33.3,25.2,33.3,25.2,33.4C25.2,33.3,25.2,33.3,25.2,33.4C25.2,33.3,25.2,33.4,25.2,33.4L25.2,33.4L25.2,33.4z"/>
	<path class="st0" d="M34.3,33.4L34.3,33.4C34.3,33.3,34.3,33.3,34.3,33.4C34.3,33.3,34.3,33.3,34.3,33.4
		C34.3,33.3,34.3,33.3,34.3,33.4C34.3,33.3,34.4,33.3,34.3,33.4C34.4,33.3,34.4,33.3,34.3,33.4C34.4,33.4,34.4,33.4,34.3,33.4
		C34.4,33.4,34.3,33.4,34.3,33.4z"/>
	<path class="st0" d="M18.1,33.3L18.1,33.3C18.1,33.3,18.1,33.2,18.1,33.3C18,33.2,18,33.2,18.1,33.3C18.1,33.2,18.1,33.2,18.1,33.3
		C18.1,33.2,18.1,33.2,18.1,33.3C18.1,33.2,18.1,33.2,18.1,33.3L18.1,33.3L18.1,33.3z"/>
	<path class="st0" d="M28.4,33.3L28.4,33.3C28.5,33.2,28.5,33.2,28.4,33.3C28.4,33.2,28.5,33.2,28.4,33.3
		C28.5,33.2,28.5,33.2,28.4,33.3C28.5,33.2,28.5,33.2,28.4,33.3C28.5,33.2,28.5,33.2,28.4,33.3C28.5,33.3,28.5,33.3,28.4,33.3
		C28.5,33.3,28.4,33.3,28.4,33.3z"/>
	<path class="st0" d="M21.2,33.1L21.2,33.1L21.2,33.1L21.2,33.1C21.2,33,21.2,33,21.2,33.1C21.2,33,21.2,33.1,21.2,33.1L21.2,33.1
		C21.3,33.1,21.3,33.1,21.2,33.1L21.2,33.1z"/>
	<path class="st0" d="M25.3,33.1L25.3,33.1L25.3,33.1L25.3,33.1C25.3,33,25.3,33,25.3,33.1L25.3,33.1L25.3,33.1L25.3,33.1L25.3,33.1
		z"/>
	<path class="st0" d="M34.3,33.1C34.2,33.1,34.2,33.1,34.3,33.1C34.2,33.1,34.2,33.1,34.3,33.1C34.2,33,34.2,33,34.3,33.1
		C34.2,33,34.3,33,34.3,33.1C34.3,33,34.3,33,34.3,33.1L34.3,33.1L34.3,33.1L34.3,33.1z"/>
	<path class="st0" d="M15.3,33.1L15.3,33.1C15.3,33,15.3,33,15.3,33.1C15.3,33,15.3,33,15.3,33.1C15.3,33,15.3,33,15.3,33.1
		L15.3,33.1L15.3,33.1L15.3,33.1C15.4,33,15.4,33,15.3,33.1C15.4,33,15.4,33,15.3,33.1C15.3,33,15.3,33.1,15.3,33.1
		C15.4,33.1,15.3,33.1,15.3,33.1z"/>
	<path class="st0" d="M31.2,33.1L31.2,33.1C31.2,33.1,31.1,33,31.2,33.1C31.1,33,31.1,33,31.2,33.1C31.2,33,31.2,33,31.2,33.1
		L31.2,33.1L31.2,33.1C31.2,33,31.2,33,31.2,33.1C31.2,33,31.2,33,31.2,33.1C31.2,33,31.2,33,31.2,33.1L31.2,33.1L31.2,33.1z"/>
	<path class="st0" d="M18,33L18,33L18,33C17.9,33,17.9,32.9,18,33C18,32.9,18,32.9,18,33C18,32.9,18,32.9,18,33L18,33L18,33L18,33z"
		/>
	<path class="st0" d="M28.5,33L28.5,33C28.5,33,28.6,33,28.5,33C28.5,33,28.5,32.9,28.5,33C28.6,32.9,28.6,32.9,28.5,33
		C28.6,33,28.6,33,28.5,33C28.6,33,28.6,33,28.5,33C28.6,33,28.6,33,28.5,33L28.5,33z"/>
	<path class="st0" d="M12.3,32.9L12.3,32.9L12.3,32.9L12.3,32.9L12.3,32.9L12.3,32.9L12.3,32.9L12.3,32.9C12.3,33,12.3,33,12.3,32.9
		z"/>
	<path class="st0" d="M21.1,32.9L21.1,32.9C21.1,32.8,21.1,32.8,21.1,32.9C21.1,32.8,21.1,32.8,21.1,32.9
		C21.1,32.8,21.1,32.8,21.1,32.9C21.1,32.8,21.1,32.8,21.1,32.9C21.1,32.8,21.2,32.8,21.1,32.9C21.2,32.9,21.2,32.9,21.1,32.9
		L21.1,32.9z"/>
	<path class="st0" d="M25.4,32.9C25.4,32.9,25.4,32.8,25.4,32.9C25.4,32.8,25.4,32.8,25.4,32.9C25.4,32.8,25.4,32.8,25.4,32.9
		C25.4,32.8,25.4,32.8,25.4,32.9C25.4,32.8,25.4,32.8,25.4,32.9C25.4,32.8,25.4,32.8,25.4,32.9L25.4,32.9L25.4,32.9z"/>
	<path class="st0" d="M34.2,32.9C34.2,32.9,34.2,32.8,34.2,32.9C34.2,32.8,34.1,32.8,34.2,32.9C34.1,32.8,34.1,32.8,34.2,32.9
		C34.2,32.8,34.2,32.8,34.2,32.9C34.2,32.8,34.2,32.8,34.2,32.9C34.2,32.8,34.2,32.8,34.2,32.9C34.2,32.8,34.2,32.9,34.2,32.9
		L34.2,32.9z"/>
	<path class="st0" d="M17.9,32.8L17.9,32.8C17.9,32.7,17.9,32.7,17.9,32.8C17.9,32.7,17.9,32.7,17.9,32.8
		C17.9,32.7,17.9,32.7,17.9,32.8C17.9,32.7,17.9,32.7,17.9,32.8C17.9,32.7,17.9,32.7,17.9,32.8C17.9,32.7,17.9,32.8,17.9,32.8
		L17.9,32.8z"/>
	<path class="st0" d="M28.6,32.8C28.6,32.8,28.6,32.7,28.6,32.8C28.6,32.7,28.6,32.7,28.6,32.8C28.6,32.7,28.6,32.7,28.6,32.8
		C28.7,32.7,28.7,32.7,28.6,32.8C28.7,32.7,28.7,32.7,28.6,32.8C28.7,32.7,28.7,32.7,28.6,32.8C28.7,32.7,28.7,32.8,28.6,32.8
		L28.6,32.8z"/>
	<path class="st0" d="M31,32.7L31,32.7C31,32.6,31.1,32.6,31,32.7C31,32.6,31,32.6,31,32.7C31,32.6,31,32.6,31,32.7L31,32.7L31,32.7
		L31,32.7C31.1,32.6,31.1,32.6,31,32.7C31.1,32.6,31.1,32.6,31,32.7C31.1,32.6,31.1,32.7,31,32.7C31.1,32.7,31,32.7,31,32.7z"/>
	<path class="st0" d="M12.4,32.7L12.4,32.7C12.4,32.6,12.4,32.6,12.4,32.7C12.4,32.6,12.4,32.6,12.4,32.7
		C12.4,32.6,12.4,32.6,12.4,32.7C12.4,32.6,12.4,32.6,12.4,32.7C12.4,32.6,12.4,32.7,12.4,32.7L12.4,32.7L12.4,32.7z"/>
	<path class="st0" d="M15.5,32.6L15.5,32.6C15.4,32.6,15.4,32.6,15.5,32.6C15.4,32.6,15.4,32.5,15.5,32.6
		C15.4,32.5,15.5,32.5,15.5,32.6C15.5,32.5,15.5,32.5,15.5,32.6L15.5,32.6L15.5,32.6L15.5,32.6z"/>
	<path class="st0" d="M21,32.6L21,32.6L21,32.6C21,32.6,21,32.5,21,32.6C21,32.5,21,32.5,21,32.6C21,32.5,21.1,32.5,21,32.6
		C21.1,32.6,21.1,32.6,21,32.6C21.1,32.6,21.1,32.6,21,32.6C21.1,32.6,21,32.6,21,32.6z"/>
	<path class="st0" d="M25.5,32.6L25.5,32.6L25.5,32.6C25.5,32.5,25.5,32.5,25.5,32.6C25.5,32.5,25.5,32.5,25.5,32.6
		C25.5,32.5,25.5,32.6,25.5,32.6L25.5,32.6L25.5,32.6L25.5,32.6z"/>
	<path class="st0" d="M34,32.5L34,32.5L34,32.5L34,32.5C34,32.4,34.1,32.4,34,32.5C34.1,32.5,34.1,32.5,34,32.5
		C34.1,32.5,34.1,32.5,34,32.5C34.1,32.5,34.1,32.5,34,32.5C34.1,32.6,34,32.6,34,32.5z"/>
	<path class="st0" d="M17.8,32.5L17.8,32.5L17.8,32.5C17.8,32.4,17.8,32.4,17.8,32.5C17.8,32.4,17.8,32.4,17.8,32.5
		C17.8,32.4,17.8,32.4,17.8,32.5C17.8,32.4,17.8,32.5,17.8,32.5L17.8,32.5L17.8,32.5z"/>
	<path class="st0" d="M28.7,32.5L28.7,32.5L28.7,32.5C28.7,32.4,28.7,32.4,28.7,32.5C28.7,32.4,28.8,32.4,28.7,32.5
		C28.8,32.4,28.8,32.4,28.7,32.5L28.7,32.5C28.8,32.5,28.8,32.5,28.7,32.5L28.7,32.5z"/>
	<path class="st0" d="M21,32.4C20.9,32.4,20.9,32.3,21,32.4C20.9,32.3,20.9,32.3,21,32.4C20.9,32.3,20.9,32.3,21,32.4
		C20.9,32.3,21,32.3,21,32.4C21,32.3,21,32.3,21,32.4C21,32.3,21,32.3,21,32.4C21,32.3,21,32.4,21,32.4L21,32.4z"/>
	<path class="st0" d="M25.6,32.4C25.5,32.3,25.5,32.3,25.6,32.4C25.6,32.3,25.6,32.3,25.6,32.4C25.6,32.3,25.6,32.3,25.6,32.4
		C25.6,32.3,25.6,32.3,25.6,32.4C25.6,32.3,25.6,32.3,25.6,32.4C25.6,32.3,25.6,32.3,25.6,32.4C25.6,32.3,25.6,32.4,25.6,32.4
		L25.6,32.4z"/>
	<path class="st0" d="M31.2,32.3C31.1,32.3,31.2,32.3,31.2,32.3L31.2,32.3C31.2,32.3,31.2,32.2,31.2,32.3
		C31.2,32.2,31.2,32.2,31.2,32.3C31.2,32.2,31.2,32.3,31.2,32.3L31.2,32.3L31.2,32.3L31.2,32.3z"/>
	<path class="st0" d="M15.3,32.3L15.3,32.3L15.3,32.3C15.3,32.2,15.3,32.2,15.3,32.3C15.3,32.2,15.3,32.2,15.3,32.3
		C15.4,32.2,15.4,32.2,15.3,32.3C15.4,32.2,15.4,32.3,15.3,32.3C15.4,32.3,15.4,32.3,15.3,32.3C15.4,32.3,15.3,32.3,15.3,32.3z"/>
	<path class="st0" d="M34,32.3L34,32.3C33.9,32.3,33.9,32.2,34,32.3C33.9,32.2,33.9,32.2,34,32.3C33.9,32.2,34,32.2,34,32.3
		C34,32.2,34,32.2,34,32.3C34,32.2,34,32.2,34,32.3L34,32.3L34,32.3z"/>
	<path class="st0" d="M17.7,32.3C17.7,32.2,17.7,32.2,17.7,32.3C17.7,32.2,17.7,32.2,17.7,32.3C17.7,32.2,17.7,32.2,17.7,32.3
		C17.7,32.2,17.7,32.2,17.7,32.3C17.7,32.2,17.7,32.2,17.7,32.3C17.7,32.2,17.7,32.2,17.7,32.3C17.7,32.2,17.7,32.2,17.7,32.3
		L17.7,32.3z"/>
	<path class="st0" d="M28.8,32.2L28.8,32.2L28.8,32.2L28.8,32.2C28.8,32.2,28.9,32.2,28.8,32.2C28.9,32.2,28.9,32.2,28.8,32.2
		L28.8,32.2L28.8,32.2C28.8,32.3,28.8,32.3,28.8,32.2z"/>
	<path class="st0" d="M12.6,32.1L12.6,32.1L12.6,32.1C12.6,32,12.6,32,12.6,32.1C12.6,32,12.6,32,12.6,32.1
		C12.6,32,12.6,32.1,12.6,32.1L12.6,32.1L12.6,32.1L12.6,32.1z"/>
	<path class="st0" d="M20.9,32.1L20.9,32.1C20.9,32.1,20.8,32.1,20.9,32.1C20.8,32,20.8,32,20.9,32.1C20.9,32,20.9,32,20.9,32.1
		C20.9,32,20.9,32,20.9,32.1C20.9,32,20.9,32.1,20.9,32.1L20.9,32.1L20.9,32.1z"/>
	<path class="st0" d="M25.6,32.1L25.6,32.1C25.7,32.1,25.7,32,25.6,32.1C25.7,32,25.7,32,25.6,32.1C25.7,32,25.7,32,25.6,32.1
		C25.7,32,25.7,32,25.6,32.1C25.7,32.1,25.7,32.1,25.6,32.1C25.7,32.1,25.7,32.1,25.6,32.1C25.7,32.1,25.6,32.1,25.6,32.1z"/>
	<path class="st0" d="M31.3,32.1C31.2,32.1,31.2,32,31.3,32.1C31.3,32,31.3,32,31.3,32.1C31.3,32,31.3,32,31.3,32.1
		c0-0.1,0-0.1,0-0.1l0,0l0,0l0,0C31.3,32,31.3,32,31.3,32.1C31.3,32,31.3,32,31.3,32.1C31.3,32,31.3,32,31.3,32.1L31.3,32.1z"/>
	<path class="st0" d="M15.3,32C15.3,32,15.2,32,15.3,32C15.2,32,15.2,32,15.3,32C15.2,32,15.2,32,15.3,32c0-0.1,0-0.1,0-0.1l0,0l0,0
		C15.2,31.9,15.3,31.9,15.3,32L15.3,32L15.3,32L15.3,32C15.3,32.1,15.3,32.1,15.3,32z"/>
	<path class="st0" d="M33.9,32L33.9,32C33.9,32,33.8,32,33.9,32C33.8,32,33.8,31.9,33.9,32C33.9,31.9,33.9,31.9,33.9,32
		C33.9,31.9,33.9,32,33.9,32L33.9,32L33.9,32L33.9,32z"/>
	<path class="st0" d="M17.6,32L17.6,32C17.6,32,17.6,31.9,17.6,32C17.6,31.9,17.6,31.9,17.6,32C17.6,31.9,17.6,31.9,17.6,32
		C17.6,31.9,17.6,31.9,17.6,32C17.6,31.9,17.6,31.9,17.6,32L17.6,32L17.6,32z"/>
	<path class="st0" d="M28.9,32L28.9,32C28.9,31.9,28.9,31.9,28.9,32C28.9,31.9,28.9,31.9,28.9,32C28.9,31.9,28.9,31.9,28.9,32
		C29,31.9,29,31.9,28.9,32C28.9,31.9,28.9,32,28.9,32L28.9,32L28.9,32z"/>
	<path class="st0" d="M12.7,31.9C12.7,31.8,12.7,31.8,12.7,31.9C12.7,31.8,12.7,31.8,12.7,31.9C12.7,31.8,12.7,31.8,12.7,31.9
		C12.7,31.8,12.7,31.8,12.7,31.9C12.7,31.8,12.7,31.8,12.7,31.9C12.7,31.8,12.7,31.8,12.7,31.9C12.7,31.8,12.7,31.9,12.7,31.9
		L12.7,31.9z"/>
	<path class="st0" d="M20.8,31.8L20.8,31.8L20.8,31.8C20.7,31.8,20.7,31.8,20.8,31.8C20.8,31.7,20.8,31.7,20.8,31.8L20.8,31.8
		L20.8,31.8L20.8,31.8C20.8,31.8,20.8,31.9,20.8,31.8z"/>
	<path class="st0" d="M25.7,31.8L25.7,31.8C25.8,31.8,25.8,31.8,25.7,31.8C25.7,31.8,25.8,31.8,25.7,31.8
		C25.8,31.7,25.8,31.7,25.7,31.8C25.8,31.8,25.8,31.8,25.7,31.8C25.8,31.8,25.8,31.8,25.7,31.8C25.8,31.8,25.8,31.8,25.7,31.8
		C25.8,31.8,25.7,31.8,25.7,31.8z"/>
	<path class="st0" d="M31.4,31.7L31.4,31.7L31.4,31.7L31.4,31.7L31.4,31.7L31.4,31.7L31.4,31.7L31.4,31.7
		C31.4,31.8,31.4,31.8,31.4,31.7z"/>
	<path class="st0" d="M15.1,31.7L15.1,31.7L15.1,31.7C15.1,31.7,15.1,31.6,15.1,31.7C15.1,31.6,15.1,31.6,15.1,31.7
		C15.1,31.6,15.1,31.7,15.1,31.7C15.2,31.7,15.2,31.7,15.1,31.7C15.2,31.7,15.2,31.7,15.1,31.7C15.2,31.7,15.1,31.7,15.1,31.7z"/>
	<path class="st0" d="M17.5,31.7L17.5,31.7L17.5,31.7C17.5,31.7,17.5,31.6,17.5,31.7C17.5,31.6,17.5,31.6,17.5,31.7
		C17.5,31.6,17.5,31.7,17.5,31.7L17.5,31.7L17.5,31.7L17.5,31.7z"/>
	<path class="st0" d="M29,31.7L29,31.7L29,31.7C29,31.7,29,31.6,29,31.7C29,31.6,29,31.6,29,31.7C29.1,31.7,29,31.7,29,31.7L29,31.7
		L29,31.7L29,31.7z"/>
	<path class="st0" d="M33.8,31.7C33.7,31.7,33.7,31.7,33.8,31.7C33.7,31.7,33.7,31.7,33.8,31.7C33.7,31.6,33.7,31.6,33.8,31.7
		C33.7,31.6,33.8,31.6,33.8,31.7C33.8,31.6,33.8,31.6,33.8,31.7L33.8,31.7L33.8,31.7L33.8,31.7z"/>
	<path class="st0" d="M20.7,31.6L20.7,31.6C20.7,31.6,20.7,31.5,20.7,31.6C20.6,31.5,20.6,31.5,20.7,31.6
		C20.7,31.5,20.7,31.5,20.7,31.6C20.7,31.5,20.7,31.5,20.7,31.6C20.7,31.5,20.7,31.5,20.7,31.6L20.7,31.6L20.7,31.6z"/>
	<path class="st0" d="M25.8,31.6L25.8,31.6C25.8,31.5,25.9,31.5,25.8,31.6C25.8,31.5,25.8,31.5,25.8,31.6
		C25.9,31.5,25.9,31.5,25.8,31.6C25.9,31.5,25.9,31.5,25.8,31.6C25.9,31.5,25.9,31.5,25.8,31.6C25.9,31.6,25.9,31.6,25.8,31.6
		L25.8,31.6z"/>
	<path class="st0" d="M17.4,31.5L17.4,31.5C17.4,31.4,17.4,31.4,17.4,31.5C17.4,31.4,17.4,31.4,17.4,31.5
		C17.4,31.4,17.4,31.4,17.4,31.5C17.4,31.4,17.4,31.4,17.4,31.5C17.4,31.4,17.4,31.4,17.4,31.5C17.5,31.5,17.4,31.5,17.4,31.5
		L17.4,31.5z"/>
	<path class="st0" d="M29.1,31.5C29.1,31.5,29.1,31.4,29.1,31.5C29.1,31.4,29.1,31.4,29.1,31.5C29.1,31.4,29.1,31.4,29.1,31.5
		C29.1,31.4,29.1,31.4,29.1,31.5C29.1,31.4,29.1,31.4,29.1,31.5C29.1,31.4,29.1,31.4,29.1,31.5L29.1,31.5L29.1,31.5z"/>
	<path class="st0" d="M33.7,31.5C33.7,31.5,33.7,31.4,33.7,31.5C33.7,31.4,33.6,31.4,33.7,31.5C33.6,31.4,33.6,31.4,33.7,31.5
		C33.7,31.4,33.7,31.4,33.7,31.5C33.7,31.4,33.7,31.4,33.7,31.5C33.7,31.4,33.7,31.4,33.7,31.5C33.7,31.4,33.7,31.4,33.7,31.5
		L33.7,31.5z"/>
	<path class="st0" d="M31.5,31.4L31.5,31.4L31.5,31.4L31.5,31.4C31.5,31.3,31.5,31.3,31.5,31.4L31.5,31.4L31.5,31.4L31.5,31.4
		L31.5,31.4z"/>
	<path class="st0" d="M15,31.4L15,31.4L15,31.4C15,31.3,15,31.3,15,31.4C15,31.3,15,31.3,15,31.4C15,31.3,15,31.3,15,31.4L15,31.4
		C15.1,31.4,15.1,31.4,15,31.4L15,31.4z"/>
	<path class="st0" d="M20.6,31.3L20.6,31.3L20.6,31.3C20.6,31.3,20.6,31.2,20.6,31.3C20.6,31.2,20.6,31.2,20.6,31.3
		C20.6,31.2,20.6,31.2,20.6,31.3L20.6,31.3L20.6,31.3L20.6,31.3z"/>
	<path class="st0" d="M25.9,31.3L25.9,31.3L25.9,31.3C25.9,31.3,25.9,31.2,25.9,31.3C26,31.2,26,31.2,25.9,31.3
		C26,31.2,26,31.3,25.9,31.3C26,31.3,26,31.3,25.9,31.3C26,31.3,26,31.3,25.9,31.3L25.9,31.3z"/>
	<path class="st0" d="M12.9,31.3L12.9,31.3C12.9,31.2,12.9,31.2,12.9,31.3C12.9,31.2,12.9,31.2,12.9,31.3
		C12.9,31.2,12.9,31.2,12.9,31.3C12.9,31.2,12.9,31.2,12.9,31.3C12.9,31.2,12.9,31.3,12.9,31.3L12.9,31.3L12.9,31.3z"/>
	<path class="st0" d="M17.3,31.2L17.3,31.2L17.3,31.2C17.3,31.1,17.3,31.1,17.3,31.2C17.3,31.1,17.3,31.1,17.3,31.2
		C17.3,31.1,17.3,31.1,17.3,31.2L17.3,31.2C17.4,31.2,17.4,31.2,17.3,31.2L17.3,31.2z"/>
	<path class="st0" d="M29.2,31.2L29.2,31.2L29.2,31.2C29.2,31.1,29.2,31.1,29.2,31.2C29.2,31.1,29.2,31.1,29.2,31.2
		C29.2,31.1,29.2,31.2,29.2,31.2L29.2,31.2L29.2,31.2L29.2,31.2z"/>
	<path class="st0" d="M33.6,31.2L33.6,31.2C33.6,31.2,33.6,31.1,33.6,31.2C33.5,31.1,33.5,31.1,33.6,31.2
		C33.6,31.1,33.6,31.1,33.6,31.2C33.6,31.1,33.6,31.1,33.6,31.2C33.6,31.1,33.6,31.1,33.6,31.2L33.6,31.2L33.6,31.2z"/>
	<path class="st0" d="M31.6,31.2L31.6,31.2C31.6,31.1,31.6,31.1,31.6,31.2C31.6,31.1,31.6,31.1,31.6,31.2c0-0.1,0-0.1,0-0.1l0,0l0,0
		l0,0C31.6,31.1,31.6,31.1,31.6,31.2C31.6,31.1,31.6,31.1,31.6,31.2C31.6,31.1,31.6,31.2,31.6,31.2L31.6,31.2z"/>
	<path class="st0" d="M14.9,31.2C14.9,31.2,14.9,31.1,14.9,31.2C14.9,31.1,14.9,31.1,14.9,31.2C14.9,31.1,14.9,31.1,14.9,31.2
		c0-0.1,0-0.1,0-0.1l0,0l0,0C14.9,31,14.9,31.1,14.9,31.2C14.9,31.1,14.9,31.1,14.9,31.2C15,31.1,15,31.1,14.9,31.2
		C15,31.1,15,31.2,14.9,31.2C15,31.2,14.9,31.2,14.9,31.2z"/>
	<path class="st0" d="M20.5,31.1L20.5,31.1C20.5,31,20.5,31,20.5,31.1C20.5,31,20.5,31,20.5,31.1C20.5,31,20.5,31,20.5,31.1
		C20.5,31,20.5,31,20.5,31.1C20.5,31,20.5,31,20.5,31.1C20.5,31,20.5,31.1,20.5,31.1L20.5,31.1z"/>
	<path class="st0" d="M26,31.1C26,31,26,31,26,31.1C26,31,26,31,26,31.1C26,31,26,31,26,31.1C26,31,26.1,31,26,31.1
		C26.1,31,26.1,31,26,31.1C26,31,26,31,26,31.1C26.1,31,26.1,31.1,26,31.1L26,31.1z"/>
	<path class="st0" d="M13,31C12.9,31,13,31,13,31L13,31C13,31,13,30.9,13,31C13,30.9,13,30.9,13,31L13,31L13,31L13,31L13,31z"/>
	<path class="st0" d="M17.2,31C17.2,31,17.2,30.9,17.2,31C17.2,30.9,17.2,30.9,17.2,31C17.2,30.9,17.2,30.9,17.2,31
		C17.2,30.9,17.2,30.9,17.2,31C17.2,30.9,17.2,30.9,17.2,31C17.2,30.9,17.3,30.9,17.2,31C17.3,30.9,17.3,30.9,17.2,31L17.2,31z"/>
	<path class="st0" d="M29.3,30.9L29.3,30.9L29.3,30.9L29.3,30.9L29.3,30.9L29.3,30.9L29.3,30.9L29.3,30.9C29.3,31,29.3,31,29.3,30.9
		z"/>
	<path class="st0" d="M33.5,30.9L33.5,30.9C33.4,30.9,33.4,30.8,33.5,30.9C33.4,30.8,33.4,30.8,33.5,30.9
		C33.4,30.8,33.5,30.8,33.5,30.9C33.5,30.8,33.5,30.8,33.5,30.9C33.5,30.8,33.5,30.8,33.5,30.9L33.5,30.9L33.5,30.9z"/>
	<path class="st0" d="M14.8,30.8L14.8,30.8L14.8,30.8L14.8,30.8C14.8,30.7,14.8,30.7,14.8,30.8L14.8,30.8L14.8,30.8
		C14.9,30.8,14.9,30.8,14.8,30.8C14.8,30.9,14.8,30.9,14.8,30.8z"/>
	<path class="st0" d="M20.4,30.8L20.4,30.8L20.4,30.8C20.4,30.7,20.4,30.7,20.4,30.8C20.4,30.7,20.4,30.7,20.4,30.8
		C20.4,30.7,20.4,30.7,20.4,30.8C20.4,30.7,20.4,30.8,20.4,30.8L20.4,30.8L20.4,30.8z"/>
	<path class="st0" d="M26.1,30.8L26.1,30.8L26.1,30.8C26.1,30.7,26.1,30.7,26.1,30.8C26.1,30.7,26.2,30.7,26.1,30.8
		C26.2,30.7,26.2,30.7,26.1,30.8L26.1,30.8L26.1,30.8L26.1,30.8z"/>
	<path class="st0" d="M31.7,30.7L31.7,30.7L31.7,30.7C31.7,30.6,31.8,30.6,31.7,30.7c0-0.1,0-0.1,0-0.1l0,0l0,0l0,0
		C31.8,30.6,31.8,30.6,31.7,30.7C31.8,30.6,31.8,30.6,31.7,30.7C31.8,30.7,31.7,30.7,31.7,30.7C31.8,30.7,31.7,30.7,31.7,30.7z"/>
	<path class="st0" d="M17.1,30.7L17.1,30.7L17.1,30.7C17.1,30.6,17.1,30.6,17.1,30.7C17.1,30.6,17.1,30.6,17.1,30.7
		C17.1,30.6,17.1,30.6,17.1,30.7C17.2,30.6,17.2,30.7,17.1,30.7C17.2,30.7,17.2,30.7,17.1,30.7C17.2,30.7,17.1,30.7,17.1,30.7z"/>
	<path class="st0" d="M29.4,30.7L29.4,30.7C29.4,30.7,29.4,30.6,29.4,30.7C29.4,30.6,29.4,30.6,29.4,30.7
		C29.4,30.6,29.4,30.6,29.4,30.7C29.4,30.6,29.4,30.6,29.4,30.7C29.4,30.6,29.4,30.7,29.4,30.7L29.4,30.7L29.4,30.7z"/>
	<path class="st0" d="M33.4,30.6L33.4,30.6C33.4,30.6,33.3,30.6,33.4,30.6C33.3,30.6,33.3,30.5,33.4,30.6
		C33.4,30.5,33.4,30.5,33.4,30.6C33.4,30.5,33.4,30.5,33.4,30.6L33.4,30.6L33.4,30.6L33.4,30.6z"/>
	<path class="st0" d="M20.3,30.6C20.3,30.5,20.3,30.5,20.3,30.6C20.3,30.5,20.3,30.5,20.3,30.6C20.3,30.5,20.3,30.5,20.3,30.6
		C20.3,30.5,20.3,30.4,20.3,30.6C20.3,30.5,20.3,30.5,20.3,30.6C20.3,30.5,20.3,30.5,20.3,30.6C20.3,30.5,20.3,30.5,20.3,30.6
		L20.3,30.6z"/>
	<path class="st0" d="M26.2,30.5L26.2,30.5L26.2,30.5L26.2,30.5L26.2,30.5C26.3,30.5,26.3,30.5,26.2,30.5L26.2,30.5L26.2,30.5
		C26.2,30.6,26.2,30.6,26.2,30.5z"/>
	<path class="st0" d="M14.7,30.5L14.7,30.5L14.7,30.5C14.7,30.5,14.7,30.4,14.7,30.5C14.7,30.4,14.7,30.4,14.7,30.5
		C14.7,30.4,14.7,30.5,14.7,30.5L14.7,30.5C14.8,30.5,14.7,30.5,14.7,30.5L14.7,30.5z"/>
	<path class="st0" d="M13.2,30.4L13.2,30.4L13.2,30.4L13.2,30.4L13.2,30.4L13.2,30.4L13.2,30.4L13.2,30.4
		C13.2,30.5,13.2,30.5,13.2,30.4z"/>
	<path class="st0" d="M17,30.4L17,30.4L17,30.4L17,30.4C17,30.3,17.1,30.3,17,30.4C17.1,30.3,17.1,30.4,17,30.4
		C17.1,30.4,17.1,30.4,17,30.4C17.1,30.4,17.1,30.4,17,30.4C17.1,30.4,17,30.4,17,30.4z"/>
	<path class="st0" d="M29.5,30.4C29.4,30.4,29.5,30.4,29.5,30.4L29.5,30.4L29.5,30.4C29.5,30.3,29.5,30.3,29.5,30.4L29.5,30.4
		L29.5,30.4L29.5,30.4L29.5,30.4z"/>
	<path class="st0" d="M31.8,30.4L31.8,30.4C31.9,30.4,31.9,30.3,31.8,30.4C31.9,30.3,31.9,30.3,31.8,30.4c0-0.1,0-0.1,0-0.1l0,0l0,0
		l0,0C31.9,30.3,31.9,30.3,31.8,30.4C31.9,30.3,31.9,30.3,31.8,30.4C31.9,30.4,31.9,30.4,31.8,30.4C31.9,30.4,31.9,30.4,31.8,30.4z"
		/>
	<path class="st0" d="M33.3,30.4C33.3,30.4,33.3,30.3,33.3,30.4C33.3,30.3,33.3,30.3,33.3,30.4C33.2,30.3,33.2,30.3,33.3,30.4
		C33.3,30.3,33.3,30.3,33.3,30.4C33.3,30.3,33.3,30.3,33.3,30.4C33.3,30.3,33.3,30.3,33.3,30.4C33.3,30.3,33.3,30.4,33.3,30.4
		L33.3,30.4z"/>
	<path class="st0" d="M20.2,30.3L20.2,30.3C20.2,30.3,20.2,30.2,20.2,30.3C20.2,30.2,20.2,30.2,20.2,30.3
		C20.2,30.2,20.2,30.2,20.2,30.3C20.2,30.2,20.2,30.2,20.2,30.3C20.2,30.2,20.2,30.2,20.2,30.3L20.2,30.3L20.2,30.3z"/>
	<path class="st0" d="M26.3,30.3L26.3,30.3C26.3,30.2,26.3,30.2,26.3,30.3C26.3,30.2,26.3,30.2,26.3,30.3
		C26.3,30.2,26.3,30.2,26.3,30.3C26.4,30.2,26.3,30.2,26.3,30.3C26.3,30.2,26.3,30.3,26.3,30.3L26.3,30.3L26.3,30.3z"/>
	<path class="st0" d="M14.6,30.3L14.6,30.3C14.6,30.2,14.6,30.2,14.6,30.3C14.6,30.2,14.6,30.2,14.6,30.3c0-0.1,0-0.1,0-0.1l0,0l0,0
		C14.6,30.2,14.6,30.2,14.6,30.3C14.6,30.2,14.6,30.2,14.6,30.3C14.6,30.2,14.6,30.2,14.6,30.3C14.7,30.2,14.7,30.3,14.6,30.3
		L14.6,30.3z"/>
	<path class="st0" d="M13.3,30.2C13.2,30.2,13.2,30.2,13.3,30.2C13.3,30.2,13.3,30.1,13.3,30.2C13.3,30.1,13.3,30.1,13.3,30.2
		C13.3,30.1,13.3,30.1,13.3,30.2C13.3,30.1,13.3,30.1,13.3,30.2C13.3,30.1,13.3,30.2,13.3,30.2L13.3,30.2L13.3,30.2z"/>
	<path class="st0" d="M17,30.2L17,30.2C16.9,30.1,16.9,30.1,17,30.2C16.9,30.1,16.9,30.1,17,30.2C16.9,30.1,17,30.1,17,30.2
		C17,30.1,17,30.1,17,30.2C17,30.1,17,30.1,17,30.2L17,30.2L17,30.2z"/>
	<path class="st0" d="M29.5,30.2C29.5,30.2,29.5,30.1,29.5,30.2C29.6,30.1,29.6,30.1,29.5,30.2C29.6,30.1,29.6,30.1,29.5,30.2
		C29.6,30.1,29.6,30.1,29.5,30.2C29.6,30.1,29.6,30.1,29.5,30.2C29.6,30.1,29.6,30.1,29.5,30.2C29.6,30.2,29.6,30.2,29.5,30.2
		C29.6,30.2,29.6,30.2,29.5,30.2z"/>
	<path class="st0" d="M32,30.1C31.9,30.1,31.9,30.1,32,30.1C32,30,32,30,32,30.1C32,30,32,30,32,30.1C32,30,32,30,32,30.1
		C32,30,32,30,32,30.1C32,30,32,30,32,30.1L32,30.1L32,30.1z"/>
	<path class="st0" d="M33.2,30.1C33.2,30,33.2,30,33.2,30.1C33.2,30,33.1,30,33.2,30.1C33.1,30,33.1,30,33.2,30.1
		C33.2,30,33.2,29.9,33.2,30.1C33.2,30,33.2,30,33.2,30.1C33.2,30,33.2,30,33.2,30.1C33.2,30,33.2,30,33.2,30.1L33.2,30.1z"/>
	<path class="st0" d="M20.1,30L20.1,30L20.1,30C20.1,30,20.1,29.9,20.1,30C20.1,29.9,20.1,29.9,20.1,30C20.1,29.9,20.1,30,20.1,30
		L20.1,30C20.2,30,20.1,30,20.1,30L20.1,30z"/>
	<path class="st0" d="M26.4,30L26.4,30L26.4,30C26.4,30,26.4,29.9,26.4,30C26.4,29.9,26.4,29.9,26.4,30L26.4,30L26.4,30L26.4,30
		L26.4,30z"/>
	<path class="st0" d="M14.5,30C14.5,30,14.5,29.9,14.5,30C14.5,29.9,14.5,29.9,14.5,30C14.5,29.9,14.5,29.9,14.5,30
		C14.5,29.9,14.5,29.9,14.5,30C14.5,29.9,14.5,29.9,14.5,30C14.5,29.9,14.5,29.9,14.5,30C14.5,29.9,14.5,29.9,14.5,30L14.5,30z"/>
	<path class="st0" d="M16.9,29.9L16.9,29.9C16.9,29.9,16.8,29.9,16.9,29.9C16.8,29.8,16.8,29.8,16.9,29.9
		C16.9,29.8,16.9,29.8,16.9,29.9C16.9,29.8,16.9,29.8,16.9,29.9L16.9,29.9L16.9,29.9L16.9,29.9z"/>
	<path class="st0" d="M29.6,29.9L29.6,29.9C29.7,29.9,29.7,29.9,29.6,29.9C29.7,29.8,29.7,29.8,29.6,29.9
		C29.7,29.8,29.7,29.8,29.6,29.9C29.7,29.8,29.7,29.9,29.6,29.9C29.7,29.9,29.7,29.9,29.6,29.9C29.7,29.9,29.7,29.9,29.6,29.9
		C29.7,29.9,29.6,29.9,29.6,29.9z"/>
	<path class="st0" d="M32,29.8L32,29.8C32.1,29.8,32.1,29.8,32,29.8C32.1,29.7,32.1,29.7,32,29.8c0-0.1,0-0.1,0-0.1l0,0l0,0l0,0
		C32.1,29.7,32.1,29.7,32,29.8C32.1,29.7,32.1,29.8,32,29.8C32.1,29.8,32.1,29.8,32,29.8C32.1,29.8,32.1,29.8,32,29.8z"/>
	<path class="st0" d="M33.1,29.8L33.1,29.8C33.1,29.8,33.1,29.7,33.1,29.8C33,29.7,33,29.7,33.1,29.8C33.1,29.7,33.1,29.7,33.1,29.8
		C33.1,29.7,33.1,29.7,33.1,29.8C33.1,29.7,33.1,29.7,33.1,29.8L33.1,29.8L33.1,29.8z"/>
	<path class="st0" d="M20,29.8L20,29.8C20,29.7,20,29.7,20,29.8C20,29.7,20,29.7,20,29.8C20,29.7,20,29.7,20,29.8
		C20,29.7,20,29.7,20,29.8C20,29.7,20,29.7,20,29.8C20.1,29.7,20.1,29.8,20,29.8L20,29.8z"/>
	<path class="st0" d="M26.5,29.8C26.5,29.8,26.5,29.7,26.5,29.8C26.5,29.7,26.5,29.7,26.5,29.8C26.5,29.7,26.5,29.7,26.5,29.8
		C26.5,29.7,26.5,29.7,26.5,29.8C26.5,29.7,26.5,29.7,26.5,29.8C26.5,29.7,26.5,29.7,26.5,29.8L26.5,29.8L26.5,29.8z"/>
	<path class="st0" d="M16.8,29.7C16.8,29.7,16.8,29.6,16.8,29.7C16.8,29.6,16.8,29.6,16.8,29.7C16.7,29.6,16.7,29.6,16.8,29.7
		C16.8,29.6,16.8,29.6,16.8,29.7C16.8,29.6,16.8,29.6,16.8,29.7C16.8,29.6,16.8,29.6,16.8,29.7C16.8,29.6,16.8,29.7,16.8,29.7
		L16.8,29.7z"/>
	<path class="st0" d="M29.7,29.7C29.7,29.6,29.7,29.6,29.7,29.7C29.8,29.6,29.8,29.6,29.7,29.7C29.7,29.6,29.7,29.6,29.7,29.7
		C29.8,29.6,29.8,29.6,29.7,29.7C29.8,29.6,29.8,29.6,29.7,29.7C29.8,29.6,29.8,29.6,29.7,29.7C29.8,29.6,29.8,29.7,29.7,29.7
		C29.8,29.7,29.7,29.7,29.7,29.7z"/>
	<path class="st0" d="M14.4,29.6L14.4,29.6L14.4,29.6L14.4,29.6C14.4,29.5,14.4,29.5,14.4,29.6L14.4,29.6L14.4,29.6L14.4,29.6
		L14.4,29.6z"/>
	<path class="st0" d="M13.5,29.6C13.4,29.6,13.4,29.6,13.5,29.6L13.5,29.6C13.5,29.5,13.5,29.5,13.5,29.6
		C13.5,29.5,13.5,29.5,13.5,29.6C13.5,29.5,13.5,29.6,13.5,29.6L13.5,29.6L13.5,29.6L13.5,29.6z"/>
	<path class="st0" d="M33,29.5L33,29.5L33,29.5C32.9,29.5,32.9,29.4,33,29.5C33,29.4,33,29.4,33,29.5C33,29.4,33,29.5,33,29.5
		L33,29.5L33,29.5L33,29.5z"/>
	<path class="st0" d="M19.9,29.5L19.9,29.5L19.9,29.5C19.9,29.4,19.9,29.4,19.9,29.5C19.9,29.4,19.9,29.4,19.9,29.5
		C19.9,29.4,19.9,29.4,19.9,29.5C19.9,29.5,20,29.5,19.9,29.5C20,29.5,20,29.5,19.9,29.5L19.9,29.5z"/>
	<path class="st0" d="M26.6,29.5L26.6,29.5L26.6,29.5C26.6,29.4,26.6,29.4,26.6,29.5C26.6,29.4,26.6,29.4,26.6,29.5
		C26.6,29.4,26.6,29.4,26.6,29.5L26.6,29.5L26.6,29.5L26.6,29.5z"/>
	<path class="st0" d="M32.2,29.5C32.1,29.5,32.2,29.5,32.2,29.5L32.2,29.5C32.2,29.4,32.2,29.4,32.2,29.5c0-0.1,0-0.1,0-0.1l0,0l0,0
		l0,0C32.2,29.4,32.2,29.4,32.2,29.5C32.2,29.4,32.2,29.4,32.2,29.5L32.2,29.5L32.2,29.5z"/>
	<path class="st0" d="M16.7,29.4L16.7,29.4L16.7,29.4C16.6,29.3,16.7,29.3,16.7,29.4C16.7,29.3,16.7,29.3,16.7,29.4
		C16.7,29.3,16.7,29.3,16.7,29.4C16.7,29.3,16.7,29.4,16.7,29.4L16.7,29.4L16.7,29.4z"/>
	<path class="st0" d="M29.8,29.4L29.8,29.4C29.8,29.4,29.8,29.3,29.8,29.4C29.8,29.3,29.8,29.3,29.8,29.4
		C29.9,29.3,29.9,29.3,29.8,29.4C29.9,29.3,29.9,29.3,29.8,29.4C29.9,29.4,29.9,29.4,29.8,29.4C29.9,29.4,29.9,29.4,29.8,29.4
		L29.8,29.4z"/>
	<path class="st0" d="M14.3,29.4L14.3,29.4C14.3,29.4,14.3,29.3,14.3,29.4C14.3,29.3,14.3,29.3,14.3,29.4c0-0.1,0-0.1,0-0.1l0,0l0,0
		C14.3,29.3,14.3,29.3,14.3,29.4C14.3,29.3,14.3,29.3,14.3,29.4C14.3,29.3,14.3,29.3,14.3,29.4L14.3,29.4L14.3,29.4z"/>
	<path class="st0" d="M13.5,29.4C13.5,29.3,13.5,29.3,13.5,29.4C13.6,29.3,13.6,29.3,13.5,29.4C13.6,29.3,13.6,29.3,13.5,29.4
		C13.6,29.3,13.6,29.3,13.5,29.4C13.6,29.3,13.6,29.3,13.5,29.4C13.6,29.3,13.6,29.3,13.5,29.4C13.6,29.3,13.6,29.4,13.5,29.4
		C13.6,29.4,13.6,29.4,13.5,29.4z"/>
	<path class="st0" d="M19.8,29.3C19.8,29.2,19.8,29.2,19.8,29.3C19.8,29.2,19.8,29.2,19.8,29.3C19.8,29.2,19.8,29.2,19.8,29.3
		C19.8,29.2,19.8,29.2,19.8,29.3C19.8,29.2,19.8,29.2,19.8,29.3C19.9,29.2,19.9,29.2,19.8,29.3C19.9,29.2,19.9,29.2,19.8,29.3
		C19.9,29.3,19.8,29.3,19.8,29.3z"/>
	<path class="st0" d="M26.7,29.2L26.7,29.2L26.7,29.2L26.7,29.2L26.7,29.2L26.7,29.2L26.7,29.2L26.7,29.2
		C26.7,29.3,26.7,29.3,26.7,29.2z"/>
	<path class="st0" d="M32.9,29.2L32.9,29.2C32.9,29.2,32.8,29.2,32.9,29.2C32.8,29.1,32.8,29.1,32.9,29.2
		C32.9,29.1,32.9,29.1,32.9,29.2C32.9,29.1,32.9,29.1,32.9,29.2L32.9,29.2L32.9,29.2L32.9,29.2z"/>
	<path class="st0" d="M32.3,29.2L32.3,29.2C32.3,29.2,32.3,29.1,32.3,29.2C32.3,29.1,32.3,29.1,32.3,29.2
		C32.3,29.1,32.3,29.1,32.3,29.2C32.3,29.1,32.3,29.1,32.3,29.2L32.3,29.2L32.3,29.2L32.3,29.2z"/>
	<path class="st0" d="M16.6,29.1L16.6,29.1L16.6,29.1L16.6,29.1C16.6,29,16.6,29,16.6,29.1L16.6,29.1L16.6,29.1L16.6,29.1
		C16.6,29.1,16.6,29.2,16.6,29.1z"/>
	<path class="st0" d="M29.9,29.1L29.9,29.1L29.9,29.1L29.9,29.1C30,29,30,29,29.9,29.1C30,29.1,30,29.1,29.9,29.1
		C30,29.1,29.9,29.1,29.9,29.1C30,29.1,30,29.1,29.9,29.1L29.9,29.1z"/>
	<path class="st0" d="M14.2,29.1L14.2,29.1C14.2,29,14.2,29,14.2,29.1C14.2,29,14.2,29,14.2,29.1C14.2,29,14.2,29,14.2,29.1
		C14.2,29,14.2,29,14.2,29.1C14.2,29,14.2,29,14.2,29.1C14.2,29,14.2,29.1,14.2,29.1L14.2,29.1z"/>
	<path class="st0" d="M19.7,29L19.7,29C19.7,29,19.7,28.9,19.7,29C19.7,28.9,19.7,28.9,19.7,29C19.7,28.9,19.8,28.9,19.7,29
		C19.8,28.9,19.8,28.9,19.7,29C19.8,28.9,19.8,28.9,19.7,29C19.8,29,19.8,29,19.7,29C19.8,29,19.7,29,19.7,29z"/>
	<path class="st0" d="M26.8,29C26.7,29,26.7,29,26.8,29C26.8,29,26.8,28.9,26.8,29C26.8,28.9,26.8,28.9,26.8,29
		C26.8,28.9,26.8,28.9,26.8,29C26.8,28.9,26.8,28.9,26.8,29C26.8,28.9,26.8,29,26.8,29L26.8,29L26.8,29z"/>
	<path class="st0" d="M32.8,29C32.8,29,32.8,28.9,32.8,29C32.8,28.9,32.8,28.9,32.8,29C32.7,28.9,32.7,28.9,32.8,29
		C32.8,28.9,32.8,28.9,32.8,29C32.8,28.9,32.8,28.9,32.8,29C32.8,28.9,32.8,28.9,32.8,29C32.8,28.9,32.8,29,32.8,29L32.8,29z"/>
	<path class="st0" d="M16.5,28.9L16.5,28.9C16.5,28.9,16.5,28.8,16.5,28.9C16.5,28.8,16.5,28.8,16.5,28.9
		C16.5,28.8,16.5,28.8,16.5,28.9C16.5,28.8,16.5,28.8,16.5,28.9C16.5,28.8,16.5,28.8,16.5,28.9L16.5,28.9L16.5,28.9z"/>
	<path class="st0" d="M30,28.9L30,28.9C30,28.8,30,28.8,30,28.9C30,28.8,30,28.8,30,28.9C30,28.8,30.1,28.8,30,28.9
		C30.1,28.8,30.1,28.8,30,28.9C30,28.8,30,28.8,30,28.9L30,28.9L30,28.9z"/>
	<path class="st0" d="M13.7,28.8L13.7,28.8C13.8,28.7,13.8,28.7,13.7,28.8C13.8,28.7,13.8,28.7,13.7,28.8
		C13.8,28.7,13.8,28.7,13.7,28.8C13.8,28.7,13.8,28.7,13.7,28.8C13.8,28.7,13.8,28.8,13.7,28.8C13.8,28.8,13.8,28.8,13.7,28.8
		C13.8,28.8,13.8,28.8,13.7,28.8z"/>
	<path class="st0" d="M32.4,28.8C32.4,28.8,32.4,28.7,32.4,28.8C32.4,28.7,32.4,28.7,32.4,28.8C32.4,28.7,32.4,28.7,32.4,28.8
		C32.4,28.7,32.5,28.7,32.4,28.8C32.5,28.7,32.5,28.7,32.4,28.8C32.4,28.7,32.4,28.7,32.4,28.8C32.5,28.8,32.5,28.8,32.4,28.8
		L32.4,28.8z"/>
	<path class="st0" d="M14.1,28.8C14.1,28.8,14.1,28.7,14.1,28.8C14.1,28.7,14.1,28.7,14.1,28.8C14.1,28.7,14.1,28.7,14.1,28.8
		C14.1,28.7,14.1,28.7,14.1,28.8C14.1,28.7,14.1,28.7,14.1,28.8C14.1,28.7,14.1,28.7,14.1,28.8C14.1,28.7,14.1,28.7,14.1,28.8
		L14.1,28.8z"/>
	<path class="st0" d="M19.7,28.7L19.7,28.7C19.6,28.7,19.6,28.7,19.7,28.7C19.6,28.7,19.6,28.7,19.7,28.7
		C19.6,28.6,19.7,28.6,19.7,28.7C19.7,28.6,19.7,28.7,19.7,28.7L19.7,28.7L19.7,28.7L19.7,28.7z"/>
	<path class="st0" d="M26.8,28.7L26.8,28.7C26.9,28.7,26.9,28.7,26.8,28.7C26.9,28.7,26.9,28.7,26.8,28.7
		C26.9,28.6,26.9,28.6,26.8,28.7C26.9,28.7,26.9,28.7,26.8,28.7C26.9,28.7,26.9,28.7,26.8,28.7C26.9,28.7,26.9,28.7,26.8,28.7
		C26.9,28.7,26.9,28.7,26.8,28.7z"/>
	<path class="st0" d="M32.7,28.7L32.7,28.7L32.7,28.7C32.6,28.6,32.7,28.6,32.7,28.7C32.7,28.6,32.7,28.6,32.7,28.7
		C32.7,28.6,32.7,28.6,32.7,28.7C32.7,28.6,32.7,28.7,32.7,28.7L32.7,28.7L32.7,28.7z"/>
	<path class="st0" d="M16.4,28.6L16.4,28.6L16.4,28.6C16.4,28.6,16.4,28.5,16.4,28.6C16.4,28.5,16.4,28.5,16.4,28.6
		C16.4,28.5,16.4,28.5,16.4,28.6L16.4,28.6L16.4,28.6L16.4,28.6z"/>
	<path class="st0" d="M30.1,28.6L30.1,28.6L30.1,28.6C30.1,28.6,30.1,28.5,30.1,28.6C30.1,28.5,30.1,28.5,30.1,28.6
		C30.2,28.5,30.2,28.6,30.1,28.6L30.1,28.6L30.1,28.6L30.1,28.6z"/>
	<path class="st0" d="M13.8,28.5L13.8,28.5C13.9,28.5,13.9,28.5,13.8,28.5C13.9,28.5,13.9,28.4,13.8,28.5
		C13.9,28.4,13.9,28.4,13.8,28.5C13.9,28.5,13.9,28.5,13.8,28.5C13.9,28.5,13.9,28.5,13.8,28.5C13.9,28.5,13.9,28.5,13.8,28.5
		C13.9,28.5,13.8,28.5,13.8,28.5z"/>
	<path class="st0" d="M32.5,28.5L32.5,28.5C32.5,28.5,32.5,28.4,32.5,28.5C32.5,28.4,32.5,28.4,32.5,28.5c0-0.1,0-0.1,0-0.1l0,0l0,0
		l0,0C32.6,28.4,32.6,28.4,32.5,28.5C32.6,28.4,32.6,28.4,32.5,28.5L32.5,28.5L32.5,28.5z"/>
	<path class="st0" d="M14,28.5L14,28.5C14,28.5,14,28.4,14,28.5C14,28.4,14,28.4,14,28.5c0-0.1,0-0.1,0-0.1l0,0l0,0
		C14,28.4,14,28.4,14,28.5C14,28.4,14,28.4,14,28.5C14,28.4,14,28.4,14,28.5L14,28.5L14,28.5z"/>
	<path class="st0" d="M19.6,28.5L19.6,28.5C19.6,28.4,19.5,28.4,19.6,28.5C19.5,28.4,19.5,28.4,19.6,28.5
		C19.6,28.4,19.6,28.4,19.6,28.5C19.6,28.4,19.6,28.4,19.6,28.5C19.6,28.4,19.6,28.4,19.6,28.5L19.6,28.5L19.6,28.5z"/>
	<path class="st0" d="M26.9,28.5C26.9,28.5,26.9,28.4,26.9,28.5C27,28.4,27,28.4,26.9,28.5C26.9,28.4,27,28.4,26.9,28.5
		C27,28.4,27,28.4,26.9,28.5C27,28.4,27,28.4,26.9,28.5C27,28.4,27,28.4,26.9,28.5C27,28.5,27,28.5,26.9,28.5
		C27,28.5,26.9,28.5,26.9,28.5z"/>
	<path class="st0" d="M16.3,28.4L16.3,28.4C16.3,28.3,16.3,28.3,16.3,28.4C16.3,28.3,16.3,28.3,16.3,28.4
		C16.3,28.3,16.3,28.3,16.3,28.4C16.3,28.3,16.3,28.3,16.3,28.4C16.3,28.3,16.3,28.3,16.3,28.4C16.3,28.3,16.3,28.4,16.3,28.4
		L16.3,28.4z"/>
	<path class="st0" d="M30.2,28.4C30.2,28.3,30.2,28.3,30.2,28.4C30.2,28.3,30.2,28.3,30.2,28.4C30.2,28.3,30.2,28.3,30.2,28.4
		C30.2,28.3,30.2,28.3,30.2,28.4C30.3,28.3,30.2,28.3,30.2,28.4C30.2,28.3,30.2,28.3,30.2,28.4C30.2,28.3,30.2,28.4,30.2,28.4
		L30.2,28.4z"/>
	<path class="st0" d="M19.5,28.2L19.5,28.2L19.5,28.2C19.4,28.1,19.4,28.1,19.5,28.2C19.5,28.1,19.5,28.1,19.5,28.2
		C19.5,28.1,19.5,28.1,19.5,28.2L19.5,28.2L19.5,28.2L19.5,28.2z"/>
	<path class="st0" d="M27,28.2L27,28.2C27,28.2,27.1,28.2,27,28.2C27,28.1,27,28.1,27,28.2C27.1,28.1,27.1,28.1,27,28.2
		C27.1,28.1,27.1,28.2,27,28.2C27.1,28.2,27.1,28.2,27,28.2C27.1,28.2,27.1,28.2,27,28.2L27,28.2z"/>
	<path class="st0" d="M16.2,28.1L16.2,28.1L16.2,28.1C16.2,28,16.2,28,16.2,28.1C16.2,28,16.2,28,16.2,28.1
		C16.2,28,16.2,28,16.2,28.1C16.2,28,16.2,28.1,16.2,28.1L16.2,28.1L16.2,28.1z"/>
	<path class="st0" d="M30.3,28.1L30.3,28.1L30.3,28.1C30.3,28,30.3,28,30.3,28.1C30.3,28,30.3,28,30.3,28.1
		C30.3,28,30.3,28,30.3,28.1L30.3,28.1L30.3,28.1L30.3,28.1z"/>
	<path class="st0" d="M19.4,28C19.4,28,19.4,27.9,19.4,28C19.4,27.9,19.4,27.9,19.4,28C19.3,27.9,19.4,27.9,19.4,28
		C19.4,27.9,19.4,27.9,19.4,28C19.4,27.9,19.4,27.9,19.4,28C19.4,27.9,19.4,27.9,19.4,28C19.4,27.9,19.4,28,19.4,28L19.4,28z"/>
	<path class="st0" d="M27.1,28C27.1,27.9,27.1,27.9,27.1,28C27.1,27.9,27.1,27.9,27.1,28C27.1,27.9,27.1,27.9,27.1,28
		C27.2,27.9,27.2,27.9,27.1,28C27.2,27.9,27.2,27.9,27.1,28C27.2,27.9,27.2,27.9,27.1,28C27.2,27.9,27.2,28,27.1,28L27.1,28z"/>
	<path class="st0" d="M16.1,27.8L16.1,27.8L16.1,27.8L16.1,27.8C16.1,27.7,16.1,27.7,16.1,27.8L16.1,27.8L16.1,27.8
		C16.2,27.8,16.2,27.8,16.1,27.8C16.1,27.9,16.1,27.9,16.1,27.8z"/>
	<path class="st0" d="M30.4,27.8L30.4,27.8L30.4,27.8L30.4,27.8C30.4,27.7,30.4,27.8,30.4,27.8L30.4,27.8L30.4,27.8L30.4,27.8
		C30.4,27.9,30.4,27.8,30.4,27.8z"/>
	<path class="st0" d="M19.3,27.7L19.3,27.7L19.3,27.7C19.3,27.6,19.3,27.6,19.3,27.7C19.3,27.6,19.3,27.6,19.3,27.7
		C19.3,27.6,19.3,27.6,19.3,27.7C19.3,27.6,19.3,27.7,19.3,27.7L19.3,27.7L19.3,27.7z"/>
	<path class="st0" d="M27.2,27.7L27.2,27.7C27.2,27.7,27.2,27.6,27.2,27.7C27.2,27.6,27.2,27.6,27.2,27.7
		C27.2,27.6,27.3,27.6,27.2,27.7C27.3,27.6,27.3,27.6,27.2,27.7L27.2,27.7C27.3,27.7,27.3,27.7,27.2,27.7L27.2,27.7z"/>
	<path class="st0" d="M16,27.6L16,27.6C16,27.6,16,27.5,16,27.6C16,27.5,16,27.5,16,27.6C16,27.5,16,27.5,16,27.6
		C16,27.5,16,27.5,16,27.6C16,27.5,16,27.5,16,27.6C16.1,27.6,16.1,27.6,16,27.6L16,27.6z"/>
	<path class="st0" d="M30.5,27.6L30.5,27.6C30.5,27.5,30.5,27.5,30.5,27.6C30.5,27.5,30.5,27.5,30.5,27.6
		C30.5,27.5,30.5,27.5,30.5,27.6C30.5,27.5,30.5,27.5,30.5,27.6C30.5,27.5,30.5,27.6,30.5,27.6L30.5,27.6L30.5,27.6z"/>
	<path class="st0" d="M19.2,27.4L19.2,27.4L19.2,27.4L19.2,27.4C19.2,27.3,19.2,27.3,19.2,27.4L19.2,27.4L19.2,27.4L19.2,27.4
		L19.2,27.4z"/>
	<path class="st0" d="M27.3,27.4L27.3,27.4L27.3,27.4L27.3,27.4C27.3,27.3,27.4,27.3,27.3,27.4C27.4,27.4,27.4,27.4,27.3,27.4
		L27.3,27.4L27.3,27.4L27.3,27.4z"/>
	<path class="st0" d="M15.9,27.3L15.9,27.3L15.9,27.3C15.9,27.3,15.9,27.2,15.9,27.3C15.9,27.2,15.9,27.2,15.9,27.3
		C15.9,27.2,15.9,27.3,15.9,27.3S16,27.3,15.9,27.3C16,27.3,16,27.3,15.9,27.3L15.9,27.3z"/>
	<path class="st0" d="M30.6,27.3L30.6,27.3L30.6,27.3C30.6,27.3,30.6,27.2,30.6,27.3C30.6,27.2,30.6,27.2,30.6,27.3L30.6,27.3
		L30.6,27.3L30.6,27.3L30.6,27.3z"/>
	<path class="st0" d="M19.1,27.2L19.1,27.2C19.1,27.2,19.1,27.1,19.1,27.2C19.1,27.1,19.1,27.1,19.1,27.2
		C19.1,27.1,19.1,27.1,19.1,27.2C19.1,27.1,19.1,27.1,19.1,27.2C19.1,27.1,19.1,27.1,19.1,27.2L19.1,27.2L19.1,27.2z"/>
	<path class="st0" d="M27.4,27.2L27.4,27.2C27.4,27.1,27.4,27.1,27.4,27.2C27.4,27.1,27.4,27.1,27.4,27.2
		C27.4,27.1,27.4,27.1,27.4,27.2C27.5,27.1,27.5,27.1,27.4,27.2C27.4,27.1,27.4,27.1,27.4,27.2L27.4,27.2L27.4,27.2z"/>
	<path class="st0" d="M15.8,27.1L15.8,27.1C15.8,27,15.8,27,15.8,27.1C15.8,27,15.8,27,15.8,27.1C15.8,27,15.8,27,15.8,27.1
		C15.9,27,15.9,27,15.8,27.1C15.9,27,15.9,27,15.8,27.1C15.9,27,15.9,27.1,15.8,27.1C15.9,27.1,15.8,27.1,15.8,27.1z"/>
	<path class="st0" d="M30.7,27.1C30.6,27.1,30.7,27,30.7,27.1C30.7,27,30.7,27,30.7,27.1C30.7,27,30.7,27,30.7,27.1
		C30.7,27,30.7,27,30.7,27.1C30.7,27,30.7,27,30.7,27.1C30.7,27,30.7,27,30.7,27.1L30.7,27.1L30.7,27.1z"/>
	<path class="st0" d="M19,26.9L19,26.9L19,26.9C19,26.9,19,26.8,19,26.9C19,26.8,19,26.8,19,26.9C19,26.8,19,26.8,19,26.9L19,26.9
		L19,26.9L19,26.9z"/>
	<path class="st0" d="M27.5,26.9L27.5,26.9L27.5,26.9C27.5,26.8,27.5,26.8,27.5,26.9C27.5,26.8,27.5,26.8,27.5,26.9
		C27.6,26.8,27.5,26.9,27.5,26.9L27.5,26.9L27.5,26.9L27.5,26.9z"/>
	<path class="st0" d="M15.8,26.8C15.8,26.8,15.7,26.8,15.8,26.8C15.7,26.8,15.7,26.8,15.8,26.8C15.7,26.7,15.7,26.7,15.8,26.8
		C15.7,26.7,15.8,26.7,15.8,26.8C15.8,26.7,15.8,26.7,15.8,26.8L15.8,26.8L15.8,26.8L15.8,26.8z"/>
	<path class="st0" d="M30.7,26.8L30.7,26.8C30.8,26.8,30.8,26.8,30.7,26.8C30.8,26.7,30.8,26.7,30.7,26.8
		C30.8,26.7,30.8,26.7,30.7,26.8C30.8,26.7,30.8,26.7,30.7,26.8C30.8,26.8,30.8,26.8,30.7,26.8C30.8,26.8,30.8,26.8,30.7,26.8
		C30.8,26.8,30.8,26.8,30.7,26.8z"/>
	<path class="st0" d="M18.9,26.7C18.9,26.7,18.9,26.6,18.9,26.7C18.9,26.6,18.9,26.6,18.9,26.7C18.9,26.6,18.9,26.6,18.9,26.7
		C18.9,26.6,18.9,26.6,18.9,26.7C18.9,26.6,18.9,26.6,18.9,26.7C18.9,26.6,18.9,26.6,18.9,26.7C18.9,26.6,18.9,26.7,18.9,26.7
		L18.9,26.7z"/>
	<path class="st0" d="M27.6,26.7C27.6,26.6,27.6,26.6,27.6,26.7C27.6,26.6,27.6,26.6,27.6,26.7C27.6,26.6,27.6,26.6,27.6,26.7
		C27.6,26.6,27.6,26.6,27.6,26.7C27.6,26.6,27.6,26.6,27.6,26.7C27.6,26.6,27.6,26.6,27.6,26.7C27.6,26.6,27.6,26.7,27.6,26.7
		L27.6,26.7z"/>
	<path class="st0" d="M15.7,26.6C15.7,26.5,15.7,26.5,15.7,26.6C15.7,26.5,15.6,26.5,15.7,26.6C15.6,26.5,15.6,26.5,15.7,26.6
		C15.7,26.5,15.7,26.5,15.7,26.6C15.7,26.5,15.7,26.5,15.7,26.6C15.7,26.5,15.7,26.5,15.7,26.6C15.7,26.5,15.7,26.5,15.7,26.6
		L15.7,26.6z"/>
	<path class="st0" d="M30.8,26.5L30.8,26.5C30.9,26.5,30.9,26.5,30.8,26.5C30.9,26.5,30.9,26.5,30.8,26.5
		C30.9,26.5,30.9,26.5,30.8,26.5C30.9,26.5,30.9,26.5,30.8,26.5C30.9,26.5,30.9,26.5,30.8,26.5C30.9,26.5,30.9,26.5,30.8,26.5
		C30.9,26.6,30.8,26.6,30.8,26.5z"/>
	<path class="st0" d="M18.8,26.4L18.8,26.4L18.8,26.4C18.8,26.3,18.8,26.3,18.8,26.4C18.8,26.3,18.8,26.3,18.8,26.4
		C18.8,26.3,18.8,26.3,18.8,26.4C18.8,26.3,18.8,26.4,18.8,26.4C18.9,26.4,18.9,26.4,18.8,26.4L18.8,26.4z"/>
	<path class="st0" d="M27.7,26.4L27.7,26.4C27.7,26.4,27.7,26.3,27.7,26.4C27.7,26.3,27.7,26.3,27.7,26.4
		C27.7,26.3,27.7,26.3,27.7,26.4C27.7,26.3,27.7,26.3,27.7,26.4L27.7,26.4L27.7,26.4L27.7,26.4z"/>
	<path class="st0" d="M15.6,26.3L15.6,26.3C15.6,26.3,15.6,26.2,15.6,26.3C15.5,26.2,15.5,26.2,15.6,26.3
		C15.6,26.2,15.6,26.2,15.6,26.3C15.6,26.2,15.6,26.2,15.6,26.3C15.6,26.2,15.6,26.2,15.6,26.3L15.6,26.3L15.6,26.3z"/>
	<path class="st0" d="M30.9,26.3L30.9,26.3C31,26.2,31,26.2,30.9,26.3C30.9,26.2,30.9,26.2,30.9,26.3C31,26.2,31,26.2,30.9,26.3
		C31,26.2,31,26.2,30.9,26.3C31,26.2,31,26.3,30.9,26.3C31,26.3,31,26.3,30.9,26.3C31,26.3,30.9,26.3,30.9,26.3z"/>
	<path class="st0" d="M18.7,26.1L18.7,26.1L18.7,26.1L18.7,26.1C18.7,26,18.7,26,18.7,26.1L18.7,26.1L18.7,26.1
		C18.8,26.1,18.8,26.1,18.7,26.1C18.7,26.2,18.7,26.2,18.7,26.1z"/>
	<path class="st0" d="M27.8,26.1L27.8,26.1L27.8,26.1L27.8,26.1C27.8,26,27.8,26.1,27.8,26.1L27.8,26.1L27.8,26.1L27.8,26.1
		C27.8,26.2,27.8,26.1,27.8,26.1z"/>
	<path class="st0" d="M15.5,26L15.5,26L15.5,26C15.4,26,15.4,25.9,15.5,26C15.5,25.9,15.5,25.9,15.5,26C15.5,25.9,15.5,26,15.5,26
		L15.5,26L15.5,26L15.5,26z"/>
	<path class="st0" d="M31,26L31,26L31,26C31,26,31,25.9,31,26C31.1,25.9,31.1,25.9,31,26C31.1,26,31.1,26,31,26
		C31.1,26,31.1,26,31,26C31.1,26,31.1,26,31,26L31,26z"/>
	<path class="st0" d="M18.6,25.9L18.6,25.9C18.6,25.9,18.6,25.8,18.6,25.9C18.6,25.8,18.6,25.8,18.6,25.9
		C18.6,25.8,18.6,25.8,18.6,25.9C18.6,25.8,18.6,25.8,18.6,25.9C18.6,25.8,18.7,25.8,18.6,25.9C18.7,25.9,18.7,25.9,18.6,25.9
		L18.6,25.9z"/>
	<path class="st0" d="M27.9,25.9L27.9,25.9C27.9,25.8,27.9,25.8,27.9,25.9C27.9,25.8,27.9,25.8,27.9,25.9
		C27.9,25.8,27.9,25.8,27.9,25.9C27.9,25.8,27.9,25.8,27.9,25.9C27.9,25.8,27.9,25.9,27.9,25.9L27.9,25.9L27.9,25.9z"/>
	<path class="st0" d="M15.4,25.8L15.4,25.8C15.4,25.7,15.4,25.7,15.4,25.8C15.4,25.7,15.4,25.7,15.4,25.8
		C15.4,25.7,15.4,25.7,15.4,25.8C15.4,25.7,15.4,25.7,15.4,25.8C15.4,25.7,15.4,25.7,15.4,25.8L15.4,25.8L15.4,25.8z"/>
	<path class="st0" d="M31.1,25.8C31.1,25.8,31.1,25.7,31.1,25.8C31.1,25.7,31.1,25.7,31.1,25.8C31.1,25.7,31.1,25.7,31.1,25.8
		C31.2,25.7,31.2,25.7,31.1,25.8C31.2,25.7,31.2,25.7,31.1,25.8C31.2,25.7,31.1,25.7,31.1,25.8C31.2,25.8,31.2,25.8,31.1,25.8
		L31.1,25.8z"/>
	<path class="st0" d="M18.5,25.6L18.5,25.6L18.5,25.6C18.5,25.6,18.5,25.5,18.5,25.6C18.5,25.5,18.5,25.5,18.5,25.6
		C18.6,25.5,18.6,25.6,18.5,25.6C18.6,25.6,18.6,25.6,18.5,25.6C18.6,25.6,18.6,25.6,18.5,25.6C18.6,25.6,18.5,25.6,18.5,25.6z"/>
	<path class="st0" d="M28,25.6C27.9,25.6,28,25.6,28,25.6L28,25.6C28,25.6,28,25.5,28,25.6C28,25.5,28,25.5,28,25.6L28,25.6L28,25.6
		L28,25.6L28,25.6z"/>
	<path class="st0" d="M15.3,25.5L15.3,25.5L15.3,25.5C15.3,25.4,15.3,25.4,15.3,25.5C15.3,25.4,15.3,25.4,15.3,25.5
		C15.3,25.4,15.3,25.4,15.3,25.5L15.3,25.5L15.3,25.5L15.3,25.5z"/>
	<path class="st0" d="M31.2,25.5L31.2,25.5L31.2,25.5C31.2,25.4,31.2,25.4,31.2,25.5C31.2,25.4,31.3,25.4,31.2,25.5
		C31.3,25.4,31.3,25.5,31.2,25.5L31.2,25.5C31.3,25.5,31.2,25.5,31.2,25.5L31.2,25.5z"/>
	<path class="st0" d="M18.5,25.4C18.5,25.4,18.4,25.4,18.5,25.4C18.4,25.3,18.4,25.3,18.5,25.4C18.4,25.3,18.4,25.3,18.5,25.4
		C18.4,25.3,18.5,25.3,18.5,25.4C18.5,25.3,18.5,25.3,18.5,25.4C18.5,25.3,18.5,25.3,18.5,25.4C18.5,25.3,18.5,25.4,18.5,25.4
		L18.5,25.4z"/>
	<path class="st0" d="M28,25.4C28,25.4,28,25.3,28,25.4C28.1,25.3,28.1,25.3,28,25.4C28.1,25.3,28.1,25.3,28,25.4
		C28.1,25.3,28.1,25.3,28,25.4C28.1,25.3,28.1,25.3,28,25.4C28.1,25.3,28.1,25.3,28,25.4C28.1,25.4,28.1,25.4,28,25.4
		C28.1,25.4,28.1,25.4,28,25.4z"/>
	<path class="st0" d="M15.2,25.3C15.2,25.3,15.2,25.2,15.2,25.3C15.2,25.2,15.2,25.2,15.2,25.3C15.2,25.2,15.2,25.2,15.2,25.3
		C15.2,25.2,15.2,25.2,15.2,25.3C15.2,25.2,15.2,25.2,15.2,25.3C15.2,25.2,15.2,25.2,15.2,25.3C15.2,25.2,15.2,25.3,15.2,25.3
		L15.2,25.3z"/>
	<path class="st0" d="M31.3,25.3C31.3,25.2,31.3,25.2,31.3,25.3C31.3,25.2,31.3,25.2,31.3,25.3C31.3,25.2,31.3,25.2,31.3,25.3
		C31.3,25.2,31.4,25.2,31.3,25.3C31.4,25.2,31.4,25.2,31.3,25.3C31.3,25.2,31.3,25.2,31.3,25.3C31.3,25.2,31.3,25.3,31.3,25.3
		L31.3,25.3z"/>
	<path class="st0" d="M18.4,25.1L18.4,25.1C18.4,25.1,18.3,25.1,18.4,25.1C18.3,25,18.3,25,18.4,25.1C18.4,25,18.4,25,18.4,25.1
		C18.4,25,18.4,25,18.4,25.1C18.4,25,18.4,25.1,18.4,25.1L18.4,25.1L18.4,25.1z"/>
	<path class="st0" d="M28.1,25.1L28.1,25.1C28.2,25.1,28.2,25.1,28.1,25.1C28.2,25,28.2,25,28.1,25.1C28.2,25,28.2,25,28.1,25.1
		C28.2,25,28.2,25,28.1,25.1C28.2,25.1,28.2,25.1,28.1,25.1C28.2,25.1,28.2,25.1,28.1,25.1C28.2,25.1,28.1,25.1,28.1,25.1z"/>
	<path class="st0" d="M18.3,24.9C18.3,24.8,18.3,24.8,18.3,24.9C18.3,24.8,18.3,24.8,18.3,24.9C18.2,24.8,18.2,24.8,18.3,24.9
		C18.3,24.8,18.3,24.8,18.3,24.9C18.3,24.8,18.3,24.8,18.3,24.9C18.3,24.8,18.3,24.8,18.3,24.9C18.3,24.8,18.3,24.8,18.3,24.9
		L18.3,24.9z"/>
	<path class="st0" d="M28.2,24.8L28.2,24.8C28.3,24.8,28.3,24.8,28.2,24.8L28.2,24.8C28.3,24.8,28.3,24.8,28.2,24.8
		C28.3,24.8,28.3,24.8,28.2,24.8C28.3,24.8,28.3,24.8,28.2,24.8C28.3,24.8,28.3,24.8,28.2,24.8C28.3,24.9,28.2,24.9,28.2,24.8z"/>
	<path class="st0" d="M18.2,24.6L18.2,24.6C18.2,24.6,18.2,24.5,18.2,24.6C18.1,24.5,18.1,24.5,18.2,24.6
		C18.2,24.5,18.2,24.5,18.2,24.6C18.2,24.5,18.2,24.5,18.2,24.6C18.2,24.5,18.2,24.5,18.2,24.6L18.2,24.6L18.2,24.6z"/>
	<path class="st0" d="M28.3,24.6L28.3,24.6C28.3,24.5,28.3,24.5,28.3,24.6C28.3,24.5,28.3,24.5,28.3,24.6
		C28.4,24.5,28.4,24.5,28.3,24.6C28.4,24.5,28.4,24.5,28.3,24.6C28.4,24.5,28.4,24.6,28.3,24.6C28.4,24.6,28.4,24.6,28.3,24.6
		L28.3,24.6z"/>
	<path class="st0" d="M18.1,24.3L18.1,24.3L18.1,24.3C18.1,24.3,18.1,24.2,18.1,24.3C18.1,24.2,18.1,24.2,18.1,24.3
		C18.1,24.2,18.1,24.3,18.1,24.3L18.1,24.3L18.1,24.3L18.1,24.3z"/>
	<path class="st0" d="M28.4,24.3L28.4,24.3L28.4,24.3C28.4,24.3,28.4,24.2,28.4,24.3C28.5,24.2,28.5,24.2,28.4,24.3
		C28.5,24.3,28.5,24.3,28.4,24.3C28.5,24.3,28.4,24.3,28.4,24.3C28.5,24.3,28.5,24.3,28.4,24.3L28.4,24.3z"/>
	<path class="st0" d="M18,24.1L18,24.1C18,24,18,24,18,24.1C18,24,18,24,18,24.1C18,24,18,24,18,24.1C18,24,18,24,18,24.1
		C18,24,18,24,18,24.1L18,24.1L18,24.1z"/>
	<path class="st0" d="M28.5,24.1C28.5,24.1,28.5,24,28.5,24.1C28.5,24,28.5,24,28.5,24.1C28.5,24,28.5,24,28.5,24.1
		C28.5,24,28.6,24,28.5,24.1C28.6,24,28.6,24,28.5,24.1C28.5,24,28.5,24,28.5,24.1C28.6,24.1,28.5,24.1,28.5,24.1L28.5,24.1z"/>
	<path class="st0" d="M17.9,23.8L17.9,23.8L17.9,23.8C17.9,23.7,17.9,23.7,17.9,23.8C17.9,23.7,17.9,23.7,17.9,23.8
		C17.9,23.7,17.9,23.7,17.9,23.8L17.9,23.8L17.9,23.8L17.9,23.8z"/>
	<path class="st0" d="M28.6,23.8L28.6,23.8L28.6,23.8C28.6,23.7,28.6,23.7,28.6,23.8C28.6,23.7,28.6,23.7,28.6,23.8
		C28.7,23.7,28.7,23.8,28.6,23.8L28.6,23.8L28.6,23.8L28.6,23.8z"/>
	<path class="st0" d="M17.8,23.6C17.8,23.6,17.8,23.5,17.8,23.6C17.8,23.5,17.8,23.5,17.8,23.6C17.8,23.5,17.8,23.5,17.8,23.6
		C17.8,23.5,17.8,23.5,17.8,23.6C17.8,23.5,17.8,23.5,17.8,23.6C17.8,23.5,17.8,23.5,17.8,23.6C17.8,23.5,17.8,23.5,17.8,23.6
		L17.8,23.6z"/>
	<path class="st0" d="M28.7,23.5L28.7,23.5L28.7,23.5L28.7,23.5L28.7,23.5C28.8,23.5,28.8,23.5,28.7,23.5L28.7,23.5L28.7,23.5
		C28.7,23.6,28.7,23.6,28.7,23.5z"/>
	<path class="st0" d="M17.7,23.3L17.7,23.3L17.7,23.3C17.7,23.2,17.7,23.2,17.7,23.3C17.7,23.2,17.7,23.2,17.7,23.3
		C17.7,23.2,17.7,23.2,17.7,23.3C17.7,23.2,17.7,23.3,17.7,23.3L17.7,23.3L17.7,23.3z"/>
	<path class="st0" d="M28.8,23.3L28.8,23.3C28.8,23.3,28.8,23.2,28.8,23.3C28.8,23.2,28.8,23.2,28.8,23.3
		C28.8,23.2,28.8,23.2,28.8,23.3C28.8,23.2,28.8,23.2,28.8,23.3C28.8,23.2,28.8,23.3,28.8,23.3L28.8,23.3L28.8,23.3z"/>
	<path class="st0" d="M17.6,23L17.6,23L17.6,23L17.6,23C17.6,22.9,17.6,22.9,17.6,23C17.6,22.9,17.6,23,17.6,23L17.6,23
		C17.7,23,17.7,23,17.6,23L17.6,23z"/>
	<path class="st0" d="M28.9,23L28.9,23L28.9,23L28.9,23C28.9,22.9,28.9,22.9,28.9,23L28.9,23L28.9,23L28.9,23L28.9,23z"/>
	<path class="st0" d="M17.5,22.8L17.5,22.8C17.5,22.7,17.5,22.7,17.5,22.8C17.5,22.7,17.5,22.7,17.5,22.8
		C17.5,22.7,17.5,22.7,17.5,22.8C17.5,22.7,17.5,22.7,17.5,22.8C17.5,22.7,17.5,22.7,17.5,22.8C17.6,22.8,17.6,22.8,17.5,22.8
		L17.5,22.8z"/>
	<path class="st0" d="M29,22.8C29,22.8,29,22.7,29,22.8C29,22.7,29,22.7,29,22.8C29,22.7,29,22.7,29,22.8C29,22.7,29,22.7,29,22.8
		C29,22.7,29,22.7,29,22.8C29,22.7,29,22.7,29,22.8L29,22.8L29,22.8z"/>
	<path class="st0" d="M17.4,22.5L17.4,22.5L17.4,22.5C17.4,22.5,17.4,22.4,17.4,22.5C17.4,22.4,17.4,22.4,17.4,22.5
		C17.4,22.4,17.4,22.4,17.4,22.5C17.4,22.5,17.5,22.5,17.4,22.5C17.5,22.5,17.5,22.5,17.4,22.5L17.4,22.5z"/>
	<path class="st0" d="M29.1,22.5L29.1,22.5L29.1,22.5C29.1,22.4,29.1,22.4,29.1,22.5C29.1,22.4,29.1,22.4,29.1,22.5
		C29.1,22.4,29.1,22.5,29.1,22.5L29.1,22.5L29.1,22.5L29.1,22.5z"/>
	<path class="st0" d="M17.3,22.3C17.3,22.3,17.3,22.2,17.3,22.3C17.3,22.2,17.3,22.2,17.3,22.3C17.3,22.2,17.3,22.2,17.3,22.3
		C17.3,22.2,17.3,22.2,17.3,22.3C17.3,22.2,17.4,22.2,17.3,22.3C17.4,22.2,17.4,22.2,17.3,22.3C17.4,22.2,17.4,22.3,17.3,22.3
		C17.4,22.3,17.3,22.3,17.3,22.3z"/>
	<path class="st0" d="M29.2,22.3C29.2,22.2,29.2,22.2,29.2,22.3C29.2,22.2,29.2,22.2,29.2,22.3C29.2,22.2,29.2,22.2,29.2,22.3
		C29.2,22.2,29.2,22.2,29.2,22.3C29.2,22.2,29.2,22.2,29.2,22.3C29.2,22.2,29.2,22.2,29.2,22.3C29.2,22.2,29.2,22.3,29.2,22.3
		L29.2,22.3z"/>
	<path class="st0" d="M17.3,22C17.2,22,17.2,22,17.3,22C17.2,22,17.2,22,17.3,22C17.2,21.9,17.2,21.9,17.3,22
		C17.2,21.9,17.3,21.9,17.3,22C17.3,21.9,17.3,21.9,17.3,22C17.3,21.9,17.3,22,17.3,22L17.3,22L17.3,22z"/>
	<path class="st0" d="M29.3,22C29.2,22,29.2,22,29.3,22C29.3,22,29.3,21.9,29.3,22C29.3,21.9,29.3,21.9,29.3,22
		C29.3,21.9,29.3,21.9,29.3,22C29.3,21.9,29.3,21.9,29.3,22L29.3,22L29.3,22L29.3,22z"/>
	<path class="st0" d="M17.2,21.7L17.2,21.7C17.2,21.7,17.1,21.7,17.2,21.7C17.1,21.7,17.1,21.7,17.2,21.7
		C17.2,21.6,17.2,21.6,17.2,21.7L17.2,21.7L17.2,21.7L17.2,21.7C17.2,21.7,17.2,21.8,17.2,21.7z"/>
	<path class="st0" d="M29.3,21.7L29.3,21.7C29.4,21.7,29.4,21.7,29.3,21.7C29.4,21.7,29.4,21.7,29.3,21.7
		C29.4,21.6,29.4,21.6,29.3,21.7C29.4,21.7,29.4,21.7,29.3,21.7C29.4,21.7,29.4,21.7,29.3,21.7C29.4,21.7,29.4,21.7,29.3,21.7
		C29.4,21.7,29.3,21.7,29.3,21.7z"/>
	<path class="st0" d="M17.1,21.5L17.1,21.5C17.1,21.5,17.1,21.4,17.1,21.5C17,21.4,17,21.4,17.1,21.5C17.1,21.4,17.1,21.4,17.1,21.5
		C17.1,21.4,17.1,21.4,17.1,21.5C17.1,21.4,17.1,21.4,17.1,21.5L17.1,21.5L17.1,21.5z"/>
	<path class="st0" d="M29.4,21.5L29.4,21.5C29.5,21.4,29.5,21.4,29.4,21.5C29.4,21.4,29.5,21.4,29.4,21.5
		C29.5,21.4,29.5,21.4,29.4,21.5C29.5,21.4,29.5,21.4,29.4,21.5C29.5,21.4,29.5,21.4,29.4,21.5C29.5,21.5,29.5,21.5,29.4,21.5
		C29.5,21.5,29.4,21.5,29.4,21.5z"/>
	<path class="st0" d="M17,21.2L17,21.2L17,21.2C16.9,21.2,16.9,21.1,17,21.2C17,21.1,17,21.1,17,21.2C17,21.1,17,21.1,17,21.2
		L17,21.2L17,21.2L17,21.2z"/>
	<path class="st0" d="M29.5,21.2L29.5,21.2C29.5,21.2,29.6,21.2,29.5,21.2C29.5,21.2,29.5,21.1,29.5,21.2
		C29.6,21.1,29.6,21.1,29.5,21.2C29.6,21.1,29.6,21.2,29.5,21.2C29.6,21.2,29.6,21.2,29.5,21.2C29.6,21.2,29.6,21.2,29.5,21.2
		L29.5,21.2z"/>
	<path class="st0" d="M16.9,21L16.9,21C16.9,20.9,16.9,20.9,16.9,21C16.9,20.9,16.9,20.9,16.9,21C16.9,20.9,16.9,20.9,16.9,21
		C16.9,20.9,16.9,20.9,16.9,21C16.9,20.9,16.9,20.9,16.9,21C16.9,20.9,16.9,21,16.9,21L16.9,21z"/>
	<path class="st0" d="M29.6,21C29.6,20.9,29.6,20.9,29.6,21C29.6,20.9,29.6,20.9,29.6,21C29.6,20.9,29.6,20.9,29.6,21
		C29.7,20.9,29.7,20.9,29.6,21C29.7,20.9,29.7,20.9,29.6,21C29.7,20.9,29.7,20.9,29.6,21C29.7,20.9,29.7,21,29.6,21L29.6,21z"/>
	<path class="st0" d="M16.8,20.7L16.8,20.7L16.8,20.7C16.7,20.7,16.7,20.6,16.8,20.7C16.7,20.6,16.7,20.6,16.8,20.7
		C16.8,20.6,16.8,20.6,16.8,20.7C16.8,20.6,16.8,20.7,16.8,20.7L16.8,20.7L16.8,20.7z"/>
	<path class="st0" d="M29.7,20.7L29.7,20.7C29.7,20.7,29.7,20.6,29.7,20.7C29.7,20.6,29.7,20.6,29.7,20.7
		C29.8,20.6,29.8,20.6,29.7,20.7C29.8,20.6,29.8,20.7,29.7,20.7C29.8,20.7,29.7,20.7,29.7,20.7L29.7,20.7z"/>
</g>
<g>
	<path class="st0" d="M23.3,47.8c0,0-0.2-0.5-0.4-1.1c-0.2-0.6-0.5-1.6-0.8-2.2c-0.2-0.6-0.4-1.1-0.4-1.1s0.2-0.6,0.4-1.3
		c0.2-0.7,0.6-1.7,0.8-2.2c0.2-0.5,0.3-0.9,0.3-0.9l0,0c0,0,0.2,0.5,0.4,1.2c0.2,0.6,0.6,1.6,0.8,2.2l0.4,1v0.1
		C24.7,43.8,23.3,47.8,23.3,47.8L23.3,47.8z"/>
	<path class="st0" d="M8.6,43.4c0,0,5.1-14.4,5.4-15.1l0,0l1.5,4.3c0,0-0.2,0.6-0.7,2c-0.1,0.3-0.2,0.7-0.4,1.1
		c-0.1,0.2-0.1,0.4-0.2,0.6C14.1,36.6,14,36.8,14,37c-0.1,0.2-0.1,0.4-0.2,0.6c-0.1,0.2-0.1,0.4-0.2,0.4c-0.1,0.2-1.7,4.8-1.8,5.1
		c-0.1,0.2-0.1,0.3-0.1,0.3s-0.2,0-1.6,0C9.3,43.4,8.6,43.4,8.6,43.4z"/>
	<path class="st0" d="M34.8,43.4L34.8,43.4c0,0-0.1-0.2-0.1-0.3c-0.1-0.2-0.5-1.3-0.9-2.6c-0.8-2.3-0.9-2.6-1.1-3.2
		c-0.1-0.2-0.1-0.4-0.2-0.6c-0.1-0.2-0.1-0.4-0.2-0.6c-0.1-0.2-0.1-0.4-0.2-0.6c-0.1-0.2-0.1-0.4-0.2-0.6c-0.1-0.2-0.1-0.4-0.2-0.4
		c-0.3-0.7-0.6-1.8-0.6-1.9c0,0,0.1-0.4,0.3-0.9c0.3-1,0.9-2.7,1.1-3.1c0.1-0.3,0.1-0.3,0.2-0.3c0.1,0.1,5.3,15,5.3,15s-0.7,0-1.5,0
		C35.2,43.4,34.8,43.4,34.8,43.4z"/>
	<path class="st0" d="M20.6,40.3c0,0-5.4-15.1-5.4-15.2s0-0.2,0.8-2.2c0.4-1.2,0.8-2.2,0.8-2.2l0,0c0,0,1.2,3.5,2.7,7.7l2.7,7.6
		l-0.8,2.2C21,39.3,20.6,40.3,20.6,40.3L20.6,40.3z"/>
	<path class="st0" d="M25.9,40.3c0,0-0.4-1-0.8-2.2l-0.8-2.2l2.7-7.6c1.5-4.2,2.7-7.6,2.7-7.7l0,0c0,0,0.4,1,0.8,2.2
		c0.8,2,0.8,2.2,0.8,2.2C31.4,25.2,26,40.2,25.9,40.3L25.9,40.3z"/>
</g>
</svg>
